<?xml version="1.0" encoding="UTF-8" standalone="no"?>
<!DOCTYPE svg PUBLIC "-//W3C//DTD SVG 1.1//EN"
 "http://www.w3.org/Graphics/SVG/1.1/DTD/svg11.dtd">
<!-- Generated by graphviz version 2.43.0 (0)
 -->
<!-- Title: %3 Pages: 1 -->
<svg width="798pt" height="127pt"
 viewBox="0.00 0.00 798.00 127.00" xmlns="http://www.w3.org/2000/svg" xmlns:xlink="http://www.w3.org/1999/xlink">
<g id="graph0" class="graph" transform="scale(1 1) rotate(0) translate(4 123)">
<title>%3</title>
<polygon fill="white" stroke="transparent" points="-4,4 -4,-123 794,-123 794,4 -4,4"/>
<!-- 132302779281616 -->
<g id="node1" class="node">
<title>132302779281616</title>
<polygon fill="none" stroke="black" points="305.5,-82.5 305.5,-118.5 483.5,-118.5 483.5,-82.5 305.5,-82.5"/>
<text text-anchor="middle" x="317" y="-96.8" font-family="Times,serif" font-size="14.00">d</text>
<polyline fill="none" stroke="black" points="328.5,-82.5 328.5,-118.5 "/>
<text text-anchor="middle" x="368.5" y="-96.8" font-family="Times,serif" font-size="14.00">data 10.000</text>
<polyline fill="none" stroke="black" points="408.5,-82.5 408.5,-118.5 "/>
<text text-anchor="middle" x="446" y="-96.8" font-family="Times,serif" font-size="14.00">grad 8.000</text>
</g>
<!-- 132302779285328* -->
<g id="node4" class="node">
<title>132302779285328*</title>
<ellipse fill="none" stroke="black" cx="547" cy="-72.5" rx="27" ry="18"/>
<text text-anchor="middle" x="547" y="-68.8" font-family="Times,serif" font-size="14.00">*</text>
</g>
<!-- 132302779281616&#45;&gt;132302779285328* -->
<g id="edge4" class="edge">
<title>132302779281616&#45;&gt;132302779285328*</title>
<path fill="none" stroke="black" d="M483.92,-84.05C493.36,-82.29 502.53,-80.59 510.78,-79.05"/>
<polygon fill="black" stroke="black" points="511.52,-82.48 520.71,-77.21 510.23,-75.59 511.52,-82.48"/>
</g>
<!-- 132302779282192 -->
<g id="node2" class="node">
<title>132302779282192</title>
<polygon fill="none" stroke="black" points="0,-55.5 0,-91.5 179,-91.5 179,-55.5 0,-55.5"/>
<text text-anchor="middle" x="11.5" y="-69.8" font-family="Times,serif" font-size="14.00">a</text>
<polyline fill="none" stroke="black" points="23,-55.5 23,-91.5 "/>
<text text-anchor="middle" x="60" y="-69.8" font-family="Times,serif" font-size="14.00">data 5.000</text>
<polyline fill="none" stroke="black" points="97,-55.5 97,-91.5 "/>
<text text-anchor="middle" x="138" y="-69.8" font-family="Times,serif" font-size="14.00">grad 10.000</text>
</g>
<!-- 132302779280784+ -->
<g id="node6" class="node">
<title>132302779280784+</title>
<ellipse fill="none" stroke="black" cx="242" cy="-45.5" rx="27" ry="18"/>
<text text-anchor="middle" x="242" y="-41.8" font-family="Times,serif" font-size="14.00">+</text>
</g>
<!-- 132302779282192&#45;&gt;132302779280784+ -->
<g id="edge5" class="edge">
<title>132302779282192&#45;&gt;132302779280784+</title>
<path fill="none" stroke="black" d="M179.35,-56.97C188.75,-55.22 197.85,-53.53 206.05,-52"/>
<polygon fill="black" stroke="black" points="206.72,-55.44 215.91,-50.17 205.43,-48.56 206.72,-55.44"/>
</g>
<!-- 132302779285328 -->
<g id="node3" class="node">
<title>132302779285328</title>
<polygon fill="none" stroke="black" points="610,-54.5 610,-90.5 790,-90.5 790,-54.5 610,-54.5"/>
<text text-anchor="middle" x="622.5" y="-68.8" font-family="Times,serif" font-size="14.00">L</text>
<polyline fill="none" stroke="black" points="635,-54.5 635,-90.5 "/>
<text text-anchor="middle" x="675" y="-68.8" font-family="Times,serif" font-size="14.00">data 80.000</text>
<polyline fill="none" stroke="black" points="715,-54.5 715,-90.5 "/>
<text text-anchor="middle" x="752.5" y="-68.8" font-family="Times,serif" font-size="14.00">grad 1.000</text>
</g>
<!-- 132302779285328*&#45;&gt;132302779285328 -->
<g id="edge1" class="edge">
<title>132302779285328*&#45;&gt;132302779285328</title>
<path fill="none" stroke="black" d="M574.3,-72.5C581.81,-72.5 590.47,-72.5 599.65,-72.5"/>
<polygon fill="black" stroke="black" points="599.79,-76 609.79,-72.5 599.79,-69 599.79,-76"/>
</g>
<!-- 132302779280784 -->
<g id="node5" class="node">
<title>132302779280784</title>
<polygon fill="none" stroke="black" points="305,-27.5 305,-63.5 484,-63.5 484,-27.5 305,-27.5"/>
<text text-anchor="middle" x="316.5" y="-41.8" font-family="Times,serif" font-size="14.00">c</text>
<polyline fill="none" stroke="black" points="328,-27.5 328,-63.5 "/>
<text text-anchor="middle" x="365" y="-41.8" font-family="Times,serif" font-size="14.00">data 8.000</text>
<polyline fill="none" stroke="black" points="402,-27.5 402,-63.5 "/>
<text text-anchor="middle" x="443" y="-41.8" font-family="Times,serif" font-size="14.00">grad 10.000</text>
</g>
<!-- 132302779280784&#45;&gt;132302779285328* -->
<g id="edge6" class="edge">
<title>132302779280784&#45;&gt;132302779285328*</title>
<path fill="none" stroke="black" d="M484.35,-61.44C493.56,-63.09 502.48,-64.69 510.55,-66.14"/>
<polygon fill="black" stroke="black" points="510.15,-69.62 520.61,-67.94 511.38,-62.73 510.15,-69.62"/>
</g>
<!-- 132302779280784+&#45;&gt;132302779280784 -->
<g id="edge2" class="edge">
<title>132302779280784+&#45;&gt;132302779280784</title>
<path fill="none" stroke="black" d="M269.22,-45.5C276.76,-45.5 285.47,-45.5 294.71,-45.5"/>
<polygon fill="black" stroke="black" points="294.91,-49 304.91,-45.5 294.91,-42 294.91,-49"/>
</g>
<!-- 132302779272656 -->
<g id="node7" class="node">
<title>132302779272656</title>
<polygon fill="none" stroke="black" points="0,-0.5 0,-36.5 179,-36.5 179,-0.5 0,-0.5"/>
<text text-anchor="middle" x="11.5" y="-14.8" font-family="Times,serif" font-size="14.00">b</text>
<polyline fill="none" stroke="black" points="23,-0.5 23,-36.5 "/>
<text text-anchor="middle" x="60" y="-14.8" font-family="Times,serif" font-size="14.00">data 3.000</text>
<polyline fill="none" stroke="black" points="97,-0.5 97,-36.5 "/>
<text text-anchor="middle" x="138" y="-14.8" font-family="Times,serif" font-size="14.00">grad 10.000</text>
</g>
<!-- 132302779272656&#45;&gt;132302779280784+ -->
<g id="edge3" class="edge">
<title>132302779272656&#45;&gt;132302779280784+</title>
<path fill="none" stroke="black" d="M179.35,-34.44C188.56,-36.09 197.48,-37.69 205.55,-39.14"/>
<polygon fill="black" stroke="black" points="205.15,-42.62 215.61,-40.94 206.38,-35.73 205.15,-42.62"/>
</g>
</g>
</svg>
