<?xml version="1.0" encoding="UTF-8" standalone="no"?>
<!DOCTYPE svg PUBLIC "-//W3C//DTD SVG 1.1//EN"
 "http://www.w3.org/Graphics/SVG/1.1/DTD/svg11.dtd">
<!-- Generated by graphviz version 2.43.0 (0)
 -->
<!-- Title: %3 Pages: 1 -->
<svg width="478pt" height="100pt"
 viewBox="0.00 0.00 478.00 100.00" xmlns="http://www.w3.org/2000/svg" xmlns:xlink="http://www.w3.org/1999/xlink">
<g id="graph0" class="graph" transform="scale(1 1) rotate(0) translate(4 96)">
<title>%3</title>
<polygon fill="white" stroke="transparent" points="-4,4 -4,-96 474,-96 474,4 -4,4"/>
<!-- 132302779280784 -->
<g id="node1" class="node">
<title>132302779280784</title>
<polygon fill="none" stroke="black" points="298,-27.5 298,-63.5 470,-63.5 470,-27.5 298,-27.5"/>
<text text-anchor="middle" x="309.5" y="-41.8" font-family="Times,serif" font-size="14.00">c</text>
<polyline fill="none" stroke="black" points="321,-27.5 321,-63.5 "/>
<text text-anchor="middle" x="358" y="-41.8" font-family="Times,serif" font-size="14.00">data 8.000</text>
<polyline fill="none" stroke="black" points="395,-27.5 395,-63.5 "/>
<text text-anchor="middle" x="432.5" y="-41.8" font-family="Times,serif" font-size="14.00">grad 0.000</text>
</g>
<!-- 132302779280784+ -->
<g id="node2" class="node">
<title>132302779280784+</title>
<ellipse fill="none" stroke="black" cx="235" cy="-45.5" rx="27" ry="18"/>
<text text-anchor="middle" x="235" y="-41.8" font-family="Times,serif" font-size="14.00">+</text>
</g>
<!-- 132302779280784+&#45;&gt;132302779280784 -->
<g id="edge1" class="edge">
<title>132302779280784+&#45;&gt;132302779280784</title>
<path fill="none" stroke="black" d="M262.28,-45.5C269.8,-45.5 278.46,-45.5 287.63,-45.5"/>
<polygon fill="black" stroke="black" points="287.74,-49 297.74,-45.5 287.74,-42 287.74,-49"/>
</g>
<!-- 132302779272656 -->
<g id="node3" class="node">
<title>132302779272656</title>
<polygon fill="none" stroke="black" points="0,-55.5 0,-91.5 172,-91.5 172,-55.5 0,-55.5"/>
<text text-anchor="middle" x="11.5" y="-69.8" font-family="Times,serif" font-size="14.00">b</text>
<polyline fill="none" stroke="black" points="23,-55.5 23,-91.5 "/>
<text text-anchor="middle" x="60" y="-69.8" font-family="Times,serif" font-size="14.00">data 3.000</text>
<polyline fill="none" stroke="black" points="97,-55.5 97,-91.5 "/>
<text text-anchor="middle" x="134.5" y="-69.8" font-family="Times,serif" font-size="14.00">grad 0.000</text>
</g>
<!-- 132302779272656&#45;&gt;132302779280784+ -->
<g id="edge2" class="edge">
<title>132302779272656&#45;&gt;132302779280784+</title>
<path fill="none" stroke="black" d="M172.08,-57.29C181.46,-55.51 190.58,-53.77 198.81,-52.2"/>
<polygon fill="black" stroke="black" points="199.54,-55.63 208.7,-50.32 198.23,-48.75 199.54,-55.63"/>
</g>
<!-- 132302779282192 -->
<g id="node4" class="node">
<title>132302779282192</title>
<polygon fill="none" stroke="black" points="0,-0.5 0,-36.5 172,-36.5 172,-0.5 0,-0.5"/>
<text text-anchor="middle" x="11.5" y="-14.8" font-family="Times,serif" font-size="14.00">a</text>
<polyline fill="none" stroke="black" points="23,-0.5 23,-36.5 "/>
<text text-anchor="middle" x="60" y="-14.8" font-family="Times,serif" font-size="14.00">data 5.000</text>
<polyline fill="none" stroke="black" points="97,-0.5 97,-36.5 "/>
<text text-anchor="middle" x="134.5" y="-14.8" font-family="Times,serif" font-size="14.00">grad 0.000</text>
</g>
<!-- 132302779282192&#45;&gt;132302779280784+ -->
<g id="edge3" class="edge">
<title>132302779282192&#45;&gt;132302779280784+</title>
<path fill="none" stroke="black" d="M172.08,-34.13C181.46,-35.85 190.58,-37.52 198.81,-39.04"/>
<polygon fill="black" stroke="black" points="198.24,-42.49 208.7,-40.85 199.5,-35.6 198.24,-42.49"/>
</g>
</g>
</svg>
