<?xml version="1.0" encoding="UTF-8" standalone="no"?>
<!DOCTYPE svg PUBLIC "-//W3C//DTD SVG 1.1//EN"
 "http://www.w3.org/Graphics/SVG/1.1/DTD/svg11.dtd">
<!-- Generated by graphviz version 2.43.0 (0)
 -->
<!-- Title: %3 Pages: 1 -->
<svg width="790pt" height="127pt"
 viewBox="0.00 0.00 790.00 127.00" xmlns="http://www.w3.org/2000/svg" xmlns:xlink="http://www.w3.org/1999/xlink">
<g id="graph0" class="graph" transform="scale(1 1) rotate(0) translate(4 123)">
<title>%3</title>
<polygon fill="white" stroke="transparent" points="-4,4 -4,-123 786,-123 786,4 -4,4"/>
<!-- 132302779281616 -->
<g id="node1" class="node">
<title>132302779281616</title>
<polygon fill="none" stroke="black" points="298,-82.5 298,-118.5 476,-118.5 476,-82.5 298,-82.5"/>
<text text-anchor="middle" x="309.5" y="-96.8" font-family="Times,serif" font-size="14.00">d</text>
<polyline fill="none" stroke="black" points="321,-82.5 321,-118.5 "/>
<text text-anchor="middle" x="361" y="-96.8" font-family="Times,serif" font-size="14.00">data 10.000</text>
<polyline fill="none" stroke="black" points="401,-82.5 401,-118.5 "/>
<text text-anchor="middle" x="438.5" y="-96.8" font-family="Times,serif" font-size="14.00">grad 0.000</text>
</g>
<!-- 132302779285328* -->
<g id="node4" class="node">
<title>132302779285328*</title>
<ellipse fill="none" stroke="black" cx="539" cy="-72.5" rx="27" ry="18"/>
<text text-anchor="middle" x="539" y="-68.8" font-family="Times,serif" font-size="14.00">*</text>
</g>
<!-- 132302779281616&#45;&gt;132302779285328* -->
<g id="edge4" class="edge">
<title>132302779281616&#45;&gt;132302779285328*</title>
<path fill="none" stroke="black" d="M476.12,-84.05C485.54,-82.29 494.67,-80.59 502.9,-79.05"/>
<polygon fill="black" stroke="black" points="503.6,-82.48 512.79,-77.21 502.32,-75.6 503.6,-82.48"/>
</g>
<!-- 132302779282192 -->
<g id="node2" class="node">
<title>132302779282192</title>
<polygon fill="none" stroke="black" points="0,-55.5 0,-91.5 172,-91.5 172,-55.5 0,-55.5"/>
<text text-anchor="middle" x="11.5" y="-69.8" font-family="Times,serif" font-size="14.00">a</text>
<polyline fill="none" stroke="black" points="23,-55.5 23,-91.5 "/>
<text text-anchor="middle" x="60" y="-69.8" font-family="Times,serif" font-size="14.00">data 5.000</text>
<polyline fill="none" stroke="black" points="97,-55.5 97,-91.5 "/>
<text text-anchor="middle" x="134.5" y="-69.8" font-family="Times,serif" font-size="14.00">grad 0.000</text>
</g>
<!-- 132302779280784+ -->
<g id="node6" class="node">
<title>132302779280784+</title>
<ellipse fill="none" stroke="black" cx="235" cy="-45.5" rx="27" ry="18"/>
<text text-anchor="middle" x="235" y="-41.8" font-family="Times,serif" font-size="14.00">+</text>
</g>
<!-- 132302779282192&#45;&gt;132302779280784+ -->
<g id="edge5" class="edge">
<title>132302779282192&#45;&gt;132302779280784+</title>
<path fill="none" stroke="black" d="M172.08,-57.29C181.46,-55.51 190.58,-53.77 198.81,-52.2"/>
<polygon fill="black" stroke="black" points="199.54,-55.63 208.7,-50.32 198.23,-48.75 199.54,-55.63"/>
</g>
<!-- 132302779285328 -->
<g id="node3" class="node">
<title>132302779285328</title>
<polygon fill="none" stroke="black" points="602,-54.5 602,-90.5 782,-90.5 782,-54.5 602,-54.5"/>
<text text-anchor="middle" x="614.5" y="-68.8" font-family="Times,serif" font-size="14.00">L</text>
<polyline fill="none" stroke="black" points="627,-54.5 627,-90.5 "/>
<text text-anchor="middle" x="667" y="-68.8" font-family="Times,serif" font-size="14.00">data 80.000</text>
<polyline fill="none" stroke="black" points="707,-54.5 707,-90.5 "/>
<text text-anchor="middle" x="744.5" y="-68.8" font-family="Times,serif" font-size="14.00">grad 0.000</text>
</g>
<!-- 132302779285328*&#45;&gt;132302779285328 -->
<g id="edge1" class="edge">
<title>132302779285328*&#45;&gt;132302779285328</title>
<path fill="none" stroke="black" d="M566.3,-72.5C573.81,-72.5 582.47,-72.5 591.65,-72.5"/>
<polygon fill="black" stroke="black" points="591.79,-76 601.79,-72.5 591.79,-69 591.79,-76"/>
</g>
<!-- 132302779280784 -->
<g id="node5" class="node">
<title>132302779280784</title>
<polygon fill="none" stroke="black" points="301,-27.5 301,-63.5 473,-63.5 473,-27.5 301,-27.5"/>
<text text-anchor="middle" x="312.5" y="-41.8" font-family="Times,serif" font-size="14.00">c</text>
<polyline fill="none" stroke="black" points="324,-27.5 324,-63.5 "/>
<text text-anchor="middle" x="361" y="-41.8" font-family="Times,serif" font-size="14.00">data 8.000</text>
<polyline fill="none" stroke="black" points="398,-27.5 398,-63.5 "/>
<text text-anchor="middle" x="435.5" y="-41.8" font-family="Times,serif" font-size="14.00">grad 0.000</text>
</g>
<!-- 132302779280784&#45;&gt;132302779285328* -->
<g id="edge6" class="edge">
<title>132302779280784&#45;&gt;132302779285328*</title>
<path fill="none" stroke="black" d="M473.08,-60.81C483.44,-62.68 493.54,-64.5 502.57,-66.12"/>
<polygon fill="black" stroke="black" points="502.16,-69.61 512.62,-67.93 503.4,-62.72 502.16,-69.61"/>
</g>
<!-- 132302779280784+&#45;&gt;132302779280784 -->
<g id="edge2" class="edge">
<title>132302779280784+&#45;&gt;132302779280784</title>
<path fill="none" stroke="black" d="M262.13,-45.5C270.52,-45.5 280.37,-45.5 290.77,-45.5"/>
<polygon fill="black" stroke="black" points="290.89,-49 300.89,-45.5 290.89,-42 290.89,-49"/>
</g>
<!-- 132302779272656 -->
<g id="node7" class="node">
<title>132302779272656</title>
<polygon fill="none" stroke="black" points="0,-0.5 0,-36.5 172,-36.5 172,-0.5 0,-0.5"/>
<text text-anchor="middle" x="11.5" y="-14.8" font-family="Times,serif" font-size="14.00">b</text>
<polyline fill="none" stroke="black" points="23,-0.5 23,-36.5 "/>
<text text-anchor="middle" x="60" y="-14.8" font-family="Times,serif" font-size="14.00">data 3.000</text>
<polyline fill="none" stroke="black" points="97,-0.5 97,-36.5 "/>
<text text-anchor="middle" x="134.5" y="-14.8" font-family="Times,serif" font-size="14.00">grad 0.000</text>
</g>
<!-- 132302779272656&#45;&gt;132302779280784+ -->
<g id="edge3" class="edge">
<title>132302779272656&#45;&gt;132302779280784+</title>
<path fill="none" stroke="black" d="M172.08,-34.13C181.46,-35.85 190.58,-37.52 198.81,-39.04"/>
<polygon fill="black" stroke="black" points="198.24,-42.49 208.7,-40.85 199.5,-35.6 198.24,-42.49"/>
</g>
</g>
</svg>
