<?xml version="1.0" encoding="UTF-8" standalone="no"?>
<!DOCTYPE svg PUBLIC "-//W3C//DTD SVG 1.1//EN"
 "http://www.w3.org/Graphics/SVG/1.1/DTD/svg11.dtd">
<!-- Generated by graphviz version 2.43.0 (0)
 -->
<!-- Title: %3 Pages: 1 -->
<svg width="2041pt" height="239pt"
 viewBox="0.00 0.00 2041.29 239.00" xmlns="http://www.w3.org/2000/svg" xmlns:xlink="http://www.w3.org/1999/xlink">
<g id="graph0" class="graph" transform="scale(1 1) rotate(0) translate(4 235)">
<title>%3</title>
<polygon fill="white" stroke="transparent" points="-4,4 -4,-235 2037.29,-235 2037.29,4 -4,4"/>
<!-- 139846687938064 -->
<g id="node1" class="node">
<title>139846687938064</title>
<polygon fill="none" stroke="black" points="4,-194.5 4,-230.5 183,-230.5 183,-194.5 4,-194.5"/>
<text text-anchor="middle" x="19" y="-208.8" font-family="Times,serif" font-size="14.00">x1</text>
<polyline fill="none" stroke="black" points="34,-194.5 34,-230.5 "/>
<text text-anchor="middle" x="71" y="-208.8" font-family="Times,serif" font-size="14.00">data 2.000</text>
<polyline fill="none" stroke="black" points="108,-194.5 108,-230.5 "/>
<text text-anchor="middle" x="145.5" y="-208.8" font-family="Times,serif" font-size="14.00">grad 0.000</text>
</g>
<!-- 139846685654800* -->
<g id="node15" class="node">
<title>139846685654800*</title>
<ellipse fill="none" stroke="black" cx="250" cy="-157.5" rx="27" ry="18"/>
<text text-anchor="middle" x="250" y="-153.8" font-family="Times,serif" font-size="14.00">*</text>
</g>
<!-- 139846687938064&#45;&gt;139846685654800* -->
<g id="edge18" class="edge">
<title>139846687938064&#45;&gt;139846685654800*</title>
<path fill="none" stroke="black" d="M160.56,-194.45C169.51,-191.64 178.53,-188.63 187,-185.5 197.49,-181.62 208.71,-176.78 218.68,-172.22"/>
<polygon fill="black" stroke="black" points="220.2,-175.37 227.79,-167.97 217.25,-169.02 220.2,-175.37"/>
</g>
<!-- 139846687939152 -->
<g id="node2" class="node">
<title>139846687939152</title>
<polygon fill="none" stroke="black" points="1547.79,-0.5 1547.79,-36.5 1719.79,-36.5 1719.79,-0.5 1547.79,-0.5"/>
<text text-anchor="middle" x="1559.29" y="-14.8" font-family="Times,serif" font-size="14.00">y</text>
<polyline fill="none" stroke="black" points="1570.79,-0.5 1570.79,-36.5 "/>
<text text-anchor="middle" x="1607.79" y="-14.8" font-family="Times,serif" font-size="14.00">data 1.000</text>
<polyline fill="none" stroke="black" points="1644.79,-0.5 1644.79,-36.5 "/>
<text text-anchor="middle" x="1682.29" y="-14.8" font-family="Times,serif" font-size="14.00">grad 0.000</text>
</g>
<!-- 139846309410256+ -->
<g id="node21" class="node">
<title>139846309410256+</title>
<ellipse fill="none" stroke="black" cx="1783.29" cy="-45.5" rx="27" ry="18"/>
<text text-anchor="middle" x="1783.29" y="-41.8" font-family="Times,serif" font-size="14.00">+</text>
</g>
<!-- 139846687939152&#45;&gt;139846309410256+ -->
<g id="edge17" class="edge">
<title>139846687939152&#45;&gt;139846309410256+</title>
<path fill="none" stroke="black" d="M1720.17,-34.13C1729.57,-35.85 1738.72,-37.52 1746.98,-39.04"/>
<polygon fill="black" stroke="black" points="1746.45,-42.5 1756.91,-40.85 1747.71,-35.61 1746.45,-42.5"/>
</g>
<!-- 139846312250448 -->
<g id="node3" class="node">
<title>139846312250448</title>
<polygon fill="none" stroke="black" points="313,-84.5 313,-120.5 482,-120.5 482,-84.5 313,-84.5"/>
<text text-anchor="middle" x="323" y="-98.8" font-family="Times,serif" font-size="14.00"> </text>
<polyline fill="none" stroke="black" points="333,-84.5 333,-120.5 "/>
<text text-anchor="middle" x="370" y="-98.8" font-family="Times,serif" font-size="14.00">data 3.939</text>
<polyline fill="none" stroke="black" points="407,-84.5 407,-120.5 "/>
<text text-anchor="middle" x="444.5" y="-98.8" font-family="Times,serif" font-size="14.00">grad 0.000</text>
</g>
<!-- 139846312249488+ -->
<g id="node9" class="node">
<title>139846312249488+</title>
<ellipse fill="none" stroke="black" cx="545" cy="-129.5" rx="27" ry="18"/>
<text text-anchor="middle" x="545" y="-125.8" font-family="Times,serif" font-size="14.00">+</text>
</g>
<!-- 139846312250448&#45;&gt;139846312249488+ -->
<g id="edge11" class="edge">
<title>139846312250448&#45;&gt;139846312249488+</title>
<path fill="none" stroke="black" d="M482.29,-118.05C491.62,-119.78 500.7,-121.47 508.9,-122.99"/>
<polygon fill="black" stroke="black" points="508.3,-126.43 518.77,-124.82 509.57,-119.55 508.3,-126.43"/>
</g>
<!-- 139846312250448* -->
<g id="node4" class="node">
<title>139846312250448*</title>
<ellipse fill="none" stroke="black" cx="250" cy="-102.5" rx="27" ry="18"/>
<text text-anchor="middle" x="250" y="-98.8" font-family="Times,serif" font-size="14.00">*</text>
</g>
<!-- 139846312250448*&#45;&gt;139846312250448 -->
<g id="edge1" class="edge">
<title>139846312250448*&#45;&gt;139846312250448</title>
<path fill="none" stroke="black" d="M277.01,-102.5C284.58,-102.5 293.31,-102.5 302.54,-102.5"/>
<polygon fill="black" stroke="black" points="302.72,-106 312.72,-102.5 302.72,-99 302.72,-106"/>
</g>
<!-- 139846693099088 -->
<g id="node5" class="node">
<title>139846693099088</title>
<polygon fill="none" stroke="black" points="4,-84.5 4,-120.5 183,-120.5 183,-84.5 4,-84.5"/>
<text text-anchor="middle" x="19" y="-98.8" font-family="Times,serif" font-size="14.00">x2</text>
<polyline fill="none" stroke="black" points="34,-84.5 34,-120.5 "/>
<text text-anchor="middle" x="71" y="-98.8" font-family="Times,serif" font-size="14.00">data 5.000</text>
<polyline fill="none" stroke="black" points="108,-84.5 108,-120.5 "/>
<text text-anchor="middle" x="145.5" y="-98.8" font-family="Times,serif" font-size="14.00">grad 0.000</text>
</g>
<!-- 139846693099088&#45;&gt;139846312250448* -->
<g id="edge14" class="edge">
<title>139846693099088&#45;&gt;139846312250448*</title>
<path fill="none" stroke="black" d="M183.03,-102.5C193.5,-102.5 203.68,-102.5 212.79,-102.5"/>
<polygon fill="black" stroke="black" points="212.95,-106 222.95,-102.5 212.95,-99 212.95,-106"/>
</g>
<!-- 139846312256144 -->
<g id="node6" class="node">
<title>139846312256144</title>
<polygon fill="none" stroke="black" points="911,-83.5 911,-119.5 1080,-119.5 1080,-83.5 911,-83.5"/>
<text text-anchor="middle" x="921" y="-97.8" font-family="Times,serif" font-size="14.00"> </text>
<polyline fill="none" stroke="black" points="931,-83.5 931,-119.5 "/>
<text text-anchor="middle" x="968" y="-97.8" font-family="Times,serif" font-size="14.00">data 4.190</text>
<polyline fill="none" stroke="black" points="1005,-83.5 1005,-119.5 "/>
<text text-anchor="middle" x="1042.5" y="-97.8" font-family="Times,serif" font-size="14.00">grad 0.000</text>
</g>
<!-- 139846312248592sigmoid -->
<g id="node13" class="node">
<title>139846312248592sigmoid</title>
<ellipse fill="none" stroke="black" cx="1155.65" cy="-101.5" rx="39.79" ry="18"/>
<text text-anchor="middle" x="1155.65" y="-97.8" font-family="Times,serif" font-size="14.00">sigmoid</text>
</g>
<!-- 139846312256144&#45;&gt;139846312248592sigmoid -->
<g id="edge16" class="edge">
<title>139846312256144&#45;&gt;139846312248592sigmoid</title>
<path fill="none" stroke="black" d="M1080.2,-101.5C1088.96,-101.5 1097.63,-101.5 1105.8,-101.5"/>
<polygon fill="black" stroke="black" points="1105.85,-105 1115.85,-101.5 1105.85,-98 1105.85,-105"/>
</g>
<!-- 139846312256144+ -->
<g id="node7" class="node">
<title>139846312256144+</title>
<ellipse fill="none" stroke="black" cx="848" cy="-101.5" rx="27" ry="18"/>
<text text-anchor="middle" x="848" y="-97.8" font-family="Times,serif" font-size="14.00">+</text>
</g>
<!-- 139846312256144+&#45;&gt;139846312256144 -->
<g id="edge2" class="edge">
<title>139846312256144+&#45;&gt;139846312256144</title>
<path fill="none" stroke="black" d="M875.01,-101.5C882.58,-101.5 891.31,-101.5 900.54,-101.5"/>
<polygon fill="black" stroke="black" points="900.72,-105 910.72,-101.5 900.72,-98 900.72,-105"/>
</g>
<!-- 139846312249488 -->
<g id="node8" class="node">
<title>139846312249488</title>
<polygon fill="none" stroke="black" points="612,-111.5 612,-147.5 781,-147.5 781,-111.5 612,-111.5"/>
<text text-anchor="middle" x="622" y="-125.8" font-family="Times,serif" font-size="14.00"> </text>
<polyline fill="none" stroke="black" points="632,-111.5 632,-147.5 "/>
<text text-anchor="middle" x="669" y="-125.8" font-family="Times,serif" font-size="14.00">data 4.190</text>
<polyline fill="none" stroke="black" points="706,-111.5 706,-147.5 "/>
<text text-anchor="middle" x="743.5" y="-125.8" font-family="Times,serif" font-size="14.00">grad 0.000</text>
</g>
<!-- 139846312249488&#45;&gt;139846312256144+ -->
<g id="edge8" class="edge">
<title>139846312249488&#45;&gt;139846312256144+</title>
<path fill="none" stroke="black" d="M781.43,-113.78C792.07,-111.79 802.45,-109.84 811.71,-108.11"/>
<polygon fill="black" stroke="black" points="812.45,-111.53 821.63,-106.25 811.16,-104.65 812.45,-111.53"/>
</g>
<!-- 139846312249488+&#45;&gt;139846312249488 -->
<g id="edge3" class="edge">
<title>139846312249488+&#45;&gt;139846312249488</title>
<path fill="none" stroke="black" d="M572.04,-129.5C580.75,-129.5 591.03,-129.5 601.87,-129.5"/>
<polygon fill="black" stroke="black" points="601.95,-133 611.95,-129.5 601.95,-126 601.95,-133"/>
</g>
<!-- 139846687947472 -->
<g id="node10" class="node">
<title>139846687947472</title>
<polygon fill="none" stroke="black" points="0,-29.5 0,-65.5 187,-65.5 187,-29.5 0,-29.5"/>
<text text-anchor="middle" x="16.5" y="-43.8" font-family="Times,serif" font-size="14.00">w2</text>
<polyline fill="none" stroke="black" points="33,-29.5 33,-65.5 "/>
<text text-anchor="middle" x="70" y="-43.8" font-family="Times,serif" font-size="14.00">data 0.788</text>
<polyline fill="none" stroke="black" points="107,-29.5 107,-65.5 "/>
<text text-anchor="middle" x="147" y="-43.8" font-family="Times,serif" font-size="14.00">grad &#45;0.074</text>
</g>
<!-- 139846687947472&#45;&gt;139846312250448* -->
<g id="edge13" class="edge">
<title>139846687947472&#45;&gt;139846312250448*</title>
<path fill="none" stroke="black" d="M158.02,-65.65C167.79,-68.76 177.71,-72.08 187,-75.5 197.25,-79.27 208.23,-83.86 218.07,-88.18"/>
<polygon fill="black" stroke="black" points="216.89,-91.49 227.45,-92.37 219.74,-85.1 216.89,-91.49"/>
</g>
<!-- 139846694003984 -->
<g id="node11" class="node">
<title>139846694003984</title>
<polygon fill="none" stroke="black" points="1239.79,-28.5 1239.79,-64.5 1412.79,-64.5 1412.79,-28.5 1239.79,-28.5"/>
<text text-anchor="middle" x="1249.79" y="-42.8" font-family="Times,serif" font-size="14.00"> </text>
<polyline fill="none" stroke="black" points="1259.79,-28.5 1259.79,-64.5 "/>
<text text-anchor="middle" x="1298.79" y="-42.8" font-family="Times,serif" font-size="14.00">data &#45;1.000</text>
<polyline fill="none" stroke="black" points="1337.79,-28.5 1337.79,-64.5 "/>
<text text-anchor="middle" x="1375.29" y="-42.8" font-family="Times,serif" font-size="14.00">grad 0.000</text>
</g>
<!-- 139846312250256* -->
<g id="node19" class="node">
<title>139846312250256*</title>
<ellipse fill="none" stroke="black" cx="1484.29" cy="-73.5" rx="27" ry="18"/>
<text text-anchor="middle" x="1484.29" y="-69.8" font-family="Times,serif" font-size="14.00">*</text>
</g>
<!-- 139846694003984&#45;&gt;139846312250256* -->
<g id="edge10" class="edge">
<title>139846694003984&#45;&gt;139846312250256*</title>
<path fill="none" stroke="black" d="M1413.05,-61.34C1425.37,-63.47 1437.43,-65.56 1447.98,-67.39"/>
<polygon fill="black" stroke="black" points="1447.53,-70.86 1457.98,-69.12 1448.73,-63.97 1447.53,-70.86"/>
</g>
<!-- 139846312248592 -->
<g id="node12" class="node">
<title>139846312248592</title>
<polygon fill="none" stroke="black" points="1231.29,-83.5 1231.29,-119.5 1421.29,-119.5 1421.29,-83.5 1231.29,-83.5"/>
<text text-anchor="middle" x="1251.79" y="-97.8" font-family="Times,serif" font-size="14.00">pred</text>
<polyline fill="none" stroke="black" points="1272.29,-83.5 1272.29,-119.5 "/>
<text text-anchor="middle" x="1309.29" y="-97.8" font-family="Times,serif" font-size="14.00">data 0.985</text>
<polyline fill="none" stroke="black" points="1346.29,-83.5 1346.29,-119.5 "/>
<text text-anchor="middle" x="1383.79" y="-97.8" font-family="Times,serif" font-size="14.00">grad 0.000</text>
</g>
<!-- 139846312248592&#45;&gt;139846312250256* -->
<g id="edge9" class="edge">
<title>139846312248592&#45;&gt;139846312250256*</title>
<path fill="none" stroke="black" d="M1421.64,-84.57C1430.92,-82.9 1439.87,-81.29 1447.95,-79.84"/>
<polygon fill="black" stroke="black" points="1448.79,-83.25 1458.01,-78.04 1447.55,-76.36 1448.79,-83.25"/>
</g>
<!-- 139846312248592sigmoid&#45;&gt;139846312248592 -->
<g id="edge4" class="edge">
<title>139846312248592sigmoid&#45;&gt;139846312248592</title>
<path fill="none" stroke="black" d="M1195.34,-101.5C1203.25,-101.5 1211.93,-101.5 1220.94,-101.5"/>
<polygon fill="black" stroke="black" points="1221.22,-105 1231.22,-101.5 1221.22,-98 1221.22,-105"/>
</g>
<!-- 139846685654800 -->
<g id="node14" class="node">
<title>139846685654800</title>
<polygon fill="none" stroke="black" points="313,-139.5 313,-175.5 482,-175.5 482,-139.5 313,-139.5"/>
<text text-anchor="middle" x="323" y="-153.8" font-family="Times,serif" font-size="14.00"> </text>
<polyline fill="none" stroke="black" points="333,-139.5 333,-175.5 "/>
<text text-anchor="middle" x="370" y="-153.8" font-family="Times,serif" font-size="14.00">data 0.252</text>
<polyline fill="none" stroke="black" points="407,-139.5 407,-175.5 "/>
<text text-anchor="middle" x="444.5" y="-153.8" font-family="Times,serif" font-size="14.00">grad 0.000</text>
</g>
<!-- 139846685654800&#45;&gt;139846312249488+ -->
<g id="edge19" class="edge">
<title>139846685654800&#45;&gt;139846312249488+</title>
<path fill="none" stroke="black" d="M482.29,-141.37C491.62,-139.58 500.7,-137.83 508.9,-136.25"/>
<polygon fill="black" stroke="black" points="509.61,-139.68 518.77,-134.36 508.29,-132.81 509.61,-139.68"/>
</g>
<!-- 139846685654800*&#45;&gt;139846685654800 -->
<g id="edge5" class="edge">
<title>139846685654800*&#45;&gt;139846685654800</title>
<path fill="none" stroke="black" d="M277.01,-157.5C284.58,-157.5 293.31,-157.5 302.54,-157.5"/>
<polygon fill="black" stroke="black" points="302.72,-161 312.72,-157.5 302.72,-154 302.72,-161"/>
</g>
<!-- 139846687943952 -->
<g id="node16" class="node">
<title>139846687943952</title>
<polygon fill="none" stroke="black" points="608,-56.5 608,-92.5 785,-92.5 785,-56.5 608,-56.5"/>
<text text-anchor="middle" x="619.5" y="-70.8" font-family="Times,serif" font-size="14.00">b</text>
<polyline fill="none" stroke="black" points="631,-56.5 631,-92.5 "/>
<text text-anchor="middle" x="668" y="-70.8" font-family="Times,serif" font-size="14.00">data 0.000</text>
<polyline fill="none" stroke="black" points="705,-56.5 705,-92.5 "/>
<text text-anchor="middle" x="745" y="-70.8" font-family="Times,serif" font-size="14.00">grad &#45;0.015</text>
</g>
<!-- 139846687943952&#45;&gt;139846312256144+ -->
<g id="edge20" class="edge">
<title>139846687943952&#45;&gt;139846312256144+</title>
<path fill="none" stroke="black" d="M785.33,-90.36C794.52,-92.02 803.44,-93.63 811.51,-95.09"/>
<polygon fill="black" stroke="black" points="811.11,-98.58 821.58,-96.91 812.36,-91.69 811.11,-98.58"/>
</g>
<!-- 139846685414736 -->
<g id="node17" class="node">
<title>139846685414736</title>
<polygon fill="none" stroke="black" points="0,-139.5 0,-175.5 187,-175.5 187,-139.5 0,-139.5"/>
<text text-anchor="middle" x="16.5" y="-153.8" font-family="Times,serif" font-size="14.00">w1</text>
<polyline fill="none" stroke="black" points="33,-139.5 33,-175.5 "/>
<text text-anchor="middle" x="70" y="-153.8" font-family="Times,serif" font-size="14.00">data 0.126</text>
<polyline fill="none" stroke="black" points="107,-139.5 107,-175.5 "/>
<text text-anchor="middle" x="147" y="-153.8" font-family="Times,serif" font-size="14.00">grad &#45;0.030</text>
</g>
<!-- 139846685414736&#45;&gt;139846685654800* -->
<g id="edge12" class="edge">
<title>139846685414736&#45;&gt;139846685654800*</title>
<path fill="none" stroke="black" d="M187.05,-157.5C196.06,-157.5 204.79,-157.5 212.7,-157.5"/>
<polygon fill="black" stroke="black" points="212.95,-161 222.95,-157.5 212.95,-154 212.95,-161"/>
</g>
<!-- 139846312250256 -->
<g id="node18" class="node">
<title>139846312250256</title>
<polygon fill="none" stroke="black" points="1547.29,-55.5 1547.29,-91.5 1720.29,-91.5 1720.29,-55.5 1547.29,-55.5"/>
<text text-anchor="middle" x="1557.29" y="-69.8" font-family="Times,serif" font-size="14.00"> </text>
<polyline fill="none" stroke="black" points="1567.29,-55.5 1567.29,-91.5 "/>
<text text-anchor="middle" x="1606.29" y="-69.8" font-family="Times,serif" font-size="14.00">data &#45;0.985</text>
<polyline fill="none" stroke="black" points="1645.29,-55.5 1645.29,-91.5 "/>
<text text-anchor="middle" x="1682.79" y="-69.8" font-family="Times,serif" font-size="14.00">grad 0.000</text>
</g>
<!-- 139846312250256&#45;&gt;139846309410256+ -->
<g id="edge15" class="edge">
<title>139846312250256&#45;&gt;139846309410256+</title>
<path fill="none" stroke="black" d="M1720.59,-57.21C1729.95,-55.44 1739.04,-53.71 1747.25,-52.15"/>
<polygon fill="black" stroke="black" points="1747.94,-55.58 1757.11,-50.28 1746.63,-48.71 1747.94,-55.58"/>
</g>
<!-- 139846312250256*&#45;&gt;139846312250256 -->
<g id="edge6" class="edge">
<title>139846312250256*&#45;&gt;139846312250256</title>
<path fill="none" stroke="black" d="M1511.32,-73.5C1518.92,-73.5 1527.69,-73.5 1536.98,-73.5"/>
<polygon fill="black" stroke="black" points="1537.23,-77 1547.23,-73.5 1537.23,-70 1537.23,-77"/>
</g>
<!-- 139846309410256 -->
<g id="node20" class="node">
<title>139846309410256</title>
<polygon fill="none" stroke="black" points="1846.29,-27.5 1846.29,-63.5 2033.29,-63.5 2033.29,-27.5 1846.29,-27.5"/>
<text text-anchor="middle" x="1865.29" y="-41.8" font-family="Times,serif" font-size="14.00">loss</text>
<polyline fill="none" stroke="black" points="1884.29,-27.5 1884.29,-63.5 "/>
<text text-anchor="middle" x="1921.29" y="-41.8" font-family="Times,serif" font-size="14.00">data 0.015</text>
<polyline fill="none" stroke="black" points="1958.29,-27.5 1958.29,-63.5 "/>
<text text-anchor="middle" x="1995.79" y="-41.8" font-family="Times,serif" font-size="14.00">grad 0.000</text>
</g>
<!-- 139846309410256+&#45;&gt;139846309410256 -->
<g id="edge7" class="edge">
<title>139846309410256+&#45;&gt;139846309410256</title>
<path fill="none" stroke="black" d="M1810.5,-45.5C1818.03,-45.5 1826.72,-45.5 1835.96,-45.5"/>
<polygon fill="black" stroke="black" points="1836.18,-49 1846.18,-45.5 1836.18,-42 1836.18,-49"/>
</g>
</g>
</svg>
