<?xml version="1.0" encoding="UTF-8" standalone="no"?>
<!DOCTYPE svg PUBLIC "-//W3C//DTD SVG 1.1//EN"
 "http://www.w3.org/Graphics/SVG/1.1/DTD/svg11.dtd">
<!-- Generated by graphviz version 2.43.0 (0)
 -->
<!-- Title: %3 Pages: 1 -->
<svg width="2056pt" height="239pt"
 viewBox="0.00 0.00 2056.29 239.00" xmlns="http://www.w3.org/2000/svg" xmlns:xlink="http://www.w3.org/1999/xlink">
<g id="graph0" class="graph" transform="scale(1 1) rotate(0) translate(4 235)">
<title>%3</title>
<polygon fill="white" stroke="transparent" points="-4,4 -4,-235 2052.29,-235 2052.29,4 -4,4"/>
<!-- 139846687938064 -->
<g id="node1" class="node">
<title>139846687938064</title>
<polygon fill="none" stroke="black" points="4,-194.5 4,-230.5 183,-230.5 183,-194.5 4,-194.5"/>
<text text-anchor="middle" x="19" y="-208.8" font-family="Times,serif" font-size="14.00">x1</text>
<polyline fill="none" stroke="black" points="34,-194.5 34,-230.5 "/>
<text text-anchor="middle" x="71" y="-208.8" font-family="Times,serif" font-size="14.00">data 2.000</text>
<polyline fill="none" stroke="black" points="108,-194.5 108,-230.5 "/>
<text text-anchor="middle" x="145.5" y="-208.8" font-family="Times,serif" font-size="14.00">grad 0.000</text>
</g>
<!-- 139846687948112* -->
<g id="node18" class="node">
<title>139846687948112*</title>
<ellipse fill="none" stroke="black" cx="250" cy="-157.5" rx="27" ry="18"/>
<text text-anchor="middle" x="250" y="-153.8" font-family="Times,serif" font-size="14.00">*</text>
</g>
<!-- 139846687938064&#45;&gt;139846687948112* -->
<g id="edge19" class="edge">
<title>139846687938064&#45;&gt;139846687948112*</title>
<path fill="none" stroke="black" d="M160.56,-194.45C169.51,-191.64 178.53,-188.63 187,-185.5 197.49,-181.62 208.71,-176.78 218.68,-172.22"/>
<polygon fill="black" stroke="black" points="220.2,-175.37 227.79,-167.97 217.25,-169.02 220.2,-175.37"/>
</g>
<!-- 139846687939152 -->
<g id="node2" class="node">
<title>139846687939152</title>
<polygon fill="none" stroke="black" points="1562.79,-0.5 1562.79,-36.5 1734.79,-36.5 1734.79,-0.5 1562.79,-0.5"/>
<text text-anchor="middle" x="1574.29" y="-14.8" font-family="Times,serif" font-size="14.00">y</text>
<polyline fill="none" stroke="black" points="1585.79,-0.5 1585.79,-36.5 "/>
<text text-anchor="middle" x="1622.79" y="-14.8" font-family="Times,serif" font-size="14.00">data 1.000</text>
<polyline fill="none" stroke="black" points="1659.79,-0.5 1659.79,-36.5 "/>
<text text-anchor="middle" x="1697.29" y="-14.8" font-family="Times,serif" font-size="14.00">grad 0.000</text>
</g>
<!-- 139846312508112+ -->
<g id="node9" class="node">
<title>139846312508112+</title>
<ellipse fill="none" stroke="black" cx="1798.29" cy="-45.5" rx="27" ry="18"/>
<text text-anchor="middle" x="1798.29" y="-41.8" font-family="Times,serif" font-size="14.00">+</text>
</g>
<!-- 139846687939152&#45;&gt;139846312508112+ -->
<g id="edge10" class="edge">
<title>139846687939152&#45;&gt;139846312508112+</title>
<path fill="none" stroke="black" d="M1735.17,-34.13C1744.57,-35.85 1753.72,-37.52 1761.98,-39.04"/>
<polygon fill="black" stroke="black" points="1761.45,-42.5 1771.91,-40.85 1762.71,-35.61 1761.45,-42.5"/>
</g>
<!-- 139846312501840 -->
<g id="node3" class="node">
<title>139846312501840</title>
<polygon fill="none" stroke="black" points="916,-83.5 916,-119.5 1090,-119.5 1090,-83.5 916,-83.5"/>
<text text-anchor="middle" x="926" y="-97.8" font-family="Times,serif" font-size="14.00"> </text>
<polyline fill="none" stroke="black" points="936,-83.5 936,-119.5 "/>
<text text-anchor="middle" x="973" y="-97.8" font-family="Times,serif" font-size="14.00">data 4.186</text>
<polyline fill="none" stroke="black" points="1010,-83.5 1010,-119.5 "/>
<text text-anchor="middle" x="1050" y="-97.8" font-family="Times,serif" font-size="14.00">grad &#45;0.015</text>
</g>
<!-- 139846312696720sigmoid -->
<g id="node21" class="node">
<title>139846312696720sigmoid</title>
<ellipse fill="none" stroke="black" cx="1165.65" cy="-101.5" rx="39.79" ry="18"/>
<text text-anchor="middle" x="1165.65" y="-97.8" font-family="Times,serif" font-size="14.00">sigmoid</text>
</g>
<!-- 139846312501840&#45;&gt;139846312696720sigmoid -->
<g id="edge16" class="edge">
<title>139846312501840&#45;&gt;139846312696720sigmoid</title>
<path fill="none" stroke="black" d="M1090.44,-101.5C1099.01,-101.5 1107.49,-101.5 1115.48,-101.5"/>
<polygon fill="black" stroke="black" points="1115.67,-105 1125.67,-101.5 1115.67,-98 1115.67,-105"/>
</g>
<!-- 139846312501840+ -->
<g id="node4" class="node">
<title>139846312501840+</title>
<ellipse fill="none" stroke="black" cx="853" cy="-101.5" rx="27" ry="18"/>
<text text-anchor="middle" x="853" y="-97.8" font-family="Times,serif" font-size="14.00">+</text>
</g>
<!-- 139846312501840+&#45;&gt;139846312501840 -->
<g id="edge1" class="edge">
<title>139846312501840+&#45;&gt;139846312501840</title>
<path fill="none" stroke="black" d="M880.12,-101.5C887.68,-101.5 896.4,-101.5 905.64,-101.5"/>
<polygon fill="black" stroke="black" points="905.83,-105 915.83,-101.5 905.83,-98 905.83,-105"/>
</g>
<!-- 139846693099088 -->
<g id="node5" class="node">
<title>139846693099088</title>
<polygon fill="none" stroke="black" points="4,-84.5 4,-120.5 183,-120.5 183,-84.5 4,-84.5"/>
<text text-anchor="middle" x="19" y="-98.8" font-family="Times,serif" font-size="14.00">x2</text>
<polyline fill="none" stroke="black" points="34,-84.5 34,-120.5 "/>
<text text-anchor="middle" x="71" y="-98.8" font-family="Times,serif" font-size="14.00">data 5.000</text>
<polyline fill="none" stroke="black" points="108,-84.5 108,-120.5 "/>
<text text-anchor="middle" x="145.5" y="-98.8" font-family="Times,serif" font-size="14.00">grad 0.000</text>
</g>
<!-- 139846312508560* -->
<g id="node7" class="node">
<title>139846312508560*</title>
<ellipse fill="none" stroke="black" cx="250" cy="-102.5" rx="27" ry="18"/>
<text text-anchor="middle" x="250" y="-98.8" font-family="Times,serif" font-size="14.00">*</text>
</g>
<!-- 139846693099088&#45;&gt;139846312508560* -->
<g id="edge15" class="edge">
<title>139846693099088&#45;&gt;139846312508560*</title>
<path fill="none" stroke="black" d="M183.03,-102.5C193.5,-102.5 203.68,-102.5 212.79,-102.5"/>
<polygon fill="black" stroke="black" points="212.95,-106 222.95,-102.5 212.95,-99 212.95,-106"/>
</g>
<!-- 139846312508560 -->
<g id="node6" class="node">
<title>139846312508560</title>
<polygon fill="none" stroke="black" points="313,-84.5 313,-120.5 487,-120.5 487,-84.5 313,-84.5"/>
<text text-anchor="middle" x="323" y="-98.8" font-family="Times,serif" font-size="14.00"> </text>
<polyline fill="none" stroke="black" points="333,-84.5 333,-120.5 "/>
<text text-anchor="middle" x="370" y="-98.8" font-family="Times,serif" font-size="14.00">data 3.935</text>
<polyline fill="none" stroke="black" points="407,-84.5 407,-120.5 "/>
<text text-anchor="middle" x="447" y="-98.8" font-family="Times,serif" font-size="14.00">grad &#45;0.015</text>
</g>
<!-- 139846312508176+ -->
<g id="node14" class="node">
<title>139846312508176+</title>
<ellipse fill="none" stroke="black" cx="550" cy="-129.5" rx="27" ry="18"/>
<text text-anchor="middle" x="550" y="-125.8" font-family="Times,serif" font-size="14.00">+</text>
</g>
<!-- 139846312508560&#45;&gt;139846312508176+ -->
<g id="edge14" class="edge">
<title>139846312508560&#45;&gt;139846312508176+</title>
<path fill="none" stroke="black" d="M487.09,-118.21C496.48,-119.92 505.6,-121.58 513.83,-123.08"/>
<polygon fill="black" stroke="black" points="513.27,-126.54 523.73,-124.89 514.52,-119.65 513.27,-126.54"/>
</g>
<!-- 139846312508560*&#45;&gt;139846312508560 -->
<g id="edge2" class="edge">
<title>139846312508560*&#45;&gt;139846312508560</title>
<path fill="none" stroke="black" d="M277.12,-102.5C284.68,-102.5 293.4,-102.5 302.64,-102.5"/>
<polygon fill="black" stroke="black" points="302.83,-106 312.83,-102.5 302.83,-99 302.83,-106"/>
</g>
<!-- 139846312508112 -->
<g id="node8" class="node">
<title>139846312508112</title>
<polygon fill="none" stroke="black" points="1861.29,-27.5 1861.29,-63.5 2048.29,-63.5 2048.29,-27.5 1861.29,-27.5"/>
<text text-anchor="middle" x="1880.29" y="-41.8" font-family="Times,serif" font-size="14.00">loss</text>
<polyline fill="none" stroke="black" points="1899.29,-27.5 1899.29,-63.5 "/>
<text text-anchor="middle" x="1936.29" y="-41.8" font-family="Times,serif" font-size="14.00">data 0.015</text>
<polyline fill="none" stroke="black" points="1973.29,-27.5 1973.29,-63.5 "/>
<text text-anchor="middle" x="2010.79" y="-41.8" font-family="Times,serif" font-size="14.00">grad 1.000</text>
</g>
<!-- 139846312508112+&#45;&gt;139846312508112 -->
<g id="edge3" class="edge">
<title>139846312508112+&#45;&gt;139846312508112</title>
<path fill="none" stroke="black" d="M1825.5,-45.5C1833.03,-45.5 1841.72,-45.5 1850.96,-45.5"/>
<polygon fill="black" stroke="black" points="1851.18,-49 1861.18,-45.5 1851.18,-42 1851.18,-49"/>
</g>
<!-- 139846312495312 -->
<g id="node10" class="node">
<title>139846312495312</title>
<polygon fill="none" stroke="black" points="1562.29,-55.5 1562.29,-91.5 1735.29,-91.5 1735.29,-55.5 1562.29,-55.5"/>
<text text-anchor="middle" x="1572.29" y="-69.8" font-family="Times,serif" font-size="14.00"> </text>
<polyline fill="none" stroke="black" points="1582.29,-55.5 1582.29,-91.5 "/>
<text text-anchor="middle" x="1621.29" y="-69.8" font-family="Times,serif" font-size="14.00">data &#45;0.985</text>
<polyline fill="none" stroke="black" points="1660.29,-55.5 1660.29,-91.5 "/>
<text text-anchor="middle" x="1697.79" y="-69.8" font-family="Times,serif" font-size="14.00">grad 1.000</text>
</g>
<!-- 139846312495312&#45;&gt;139846312508112+ -->
<g id="edge9" class="edge">
<title>139846312495312&#45;&gt;139846312508112+</title>
<path fill="none" stroke="black" d="M1735.59,-57.21C1744.95,-55.44 1754.04,-53.71 1762.25,-52.15"/>
<polygon fill="black" stroke="black" points="1762.94,-55.58 1772.11,-50.28 1761.63,-48.71 1762.94,-55.58"/>
</g>
<!-- 139846312495312* -->
<g id="node11" class="node">
<title>139846312495312*</title>
<ellipse fill="none" stroke="black" cx="1499.29" cy="-73.5" rx="27" ry="18"/>
<text text-anchor="middle" x="1499.29" y="-69.8" font-family="Times,serif" font-size="14.00">*</text>
</g>
<!-- 139846312495312*&#45;&gt;139846312495312 -->
<g id="edge4" class="edge">
<title>139846312495312*&#45;&gt;139846312495312</title>
<path fill="none" stroke="black" d="M1526.32,-73.5C1533.92,-73.5 1542.69,-73.5 1551.98,-73.5"/>
<polygon fill="black" stroke="black" points="1552.23,-77 1562.23,-73.5 1552.23,-70 1552.23,-77"/>
</g>
<!-- 139846687947472 -->
<g id="node12" class="node">
<title>139846687947472</title>
<polygon fill="none" stroke="black" points="0,-29.5 0,-65.5 187,-65.5 187,-29.5 0,-29.5"/>
<text text-anchor="middle" x="16.5" y="-43.8" font-family="Times,serif" font-size="14.00">w2</text>
<polyline fill="none" stroke="black" points="33,-29.5 33,-65.5 "/>
<text text-anchor="middle" x="70" y="-43.8" font-family="Times,serif" font-size="14.00">data 0.787</text>
<polyline fill="none" stroke="black" points="107,-29.5 107,-65.5 "/>
<text text-anchor="middle" x="147" y="-43.8" font-family="Times,serif" font-size="14.00">grad &#45;0.074</text>
</g>
<!-- 139846687947472&#45;&gt;139846312508560* -->
<g id="edge12" class="edge">
<title>139846687947472&#45;&gt;139846312508560*</title>
<path fill="none" stroke="black" d="M158.02,-65.65C167.79,-68.76 177.71,-72.08 187,-75.5 197.25,-79.27 208.23,-83.86 218.07,-88.18"/>
<polygon fill="black" stroke="black" points="216.89,-91.49 227.45,-92.37 219.74,-85.1 216.89,-91.49"/>
</g>
<!-- 139846312508176 -->
<g id="node13" class="node">
<title>139846312508176</title>
<polygon fill="none" stroke="black" points="614.5,-111.5 614.5,-147.5 788.5,-147.5 788.5,-111.5 614.5,-111.5"/>
<text text-anchor="middle" x="624.5" y="-125.8" font-family="Times,serif" font-size="14.00"> </text>
<polyline fill="none" stroke="black" points="634.5,-111.5 634.5,-147.5 "/>
<text text-anchor="middle" x="671.5" y="-125.8" font-family="Times,serif" font-size="14.00">data 4.186</text>
<polyline fill="none" stroke="black" points="708.5,-111.5 708.5,-147.5 "/>
<text text-anchor="middle" x="748.5" y="-125.8" font-family="Times,serif" font-size="14.00">grad &#45;0.015</text>
</g>
<!-- 139846312508176&#45;&gt;139846312501840+ -->
<g id="edge20" class="edge">
<title>139846312508176&#45;&gt;139846312501840+</title>
<path fill="none" stroke="black" d="M788.6,-113.37C798.47,-111.53 808.08,-109.73 816.7,-108.11"/>
<polygon fill="black" stroke="black" points="817.5,-111.52 826.68,-106.24 816.21,-104.64 817.5,-111.52"/>
</g>
<!-- 139846312508176+&#45;&gt;139846312508176 -->
<g id="edge5" class="edge">
<title>139846312508176+&#45;&gt;139846312508176</title>
<path fill="none" stroke="black" d="M577.04,-129.5C585.07,-129.5 594.43,-129.5 604.34,-129.5"/>
<polygon fill="black" stroke="black" points="604.4,-133 614.4,-129.5 604.4,-126 604.4,-133"/>
</g>
<!-- 139846687943952 -->
<g id="node15" class="node">
<title>139846687943952</title>
<polygon fill="none" stroke="black" points="613,-56.5 613,-92.5 790,-92.5 790,-56.5 613,-56.5"/>
<text text-anchor="middle" x="624.5" y="-70.8" font-family="Times,serif" font-size="14.00">b</text>
<polyline fill="none" stroke="black" points="636,-56.5 636,-92.5 "/>
<text text-anchor="middle" x="673" y="-70.8" font-family="Times,serif" font-size="14.00">data 0.000</text>
<polyline fill="none" stroke="black" points="710,-56.5 710,-92.5 "/>
<text text-anchor="middle" x="750" y="-70.8" font-family="Times,serif" font-size="14.00">grad &#45;0.015</text>
</g>
<!-- 139846687943952&#45;&gt;139846312501840+ -->
<g id="edge13" class="edge">
<title>139846687943952&#45;&gt;139846312501840+</title>
<path fill="none" stroke="black" d="M790.33,-90.36C799.52,-92.02 808.44,-93.63 816.51,-95.09"/>
<polygon fill="black" stroke="black" points="816.11,-98.58 826.58,-96.91 817.36,-91.69 816.11,-98.58"/>
</g>
<!-- 139846687937360 -->
<g id="node16" class="node">
<title>139846687937360</title>
<polygon fill="none" stroke="black" points="1252.29,-28.5 1252.29,-64.5 1425.29,-64.5 1425.29,-28.5 1252.29,-28.5"/>
<text text-anchor="middle" x="1262.29" y="-42.8" font-family="Times,serif" font-size="14.00"> </text>
<polyline fill="none" stroke="black" points="1272.29,-28.5 1272.29,-64.5 "/>
<text text-anchor="middle" x="1311.29" y="-42.8" font-family="Times,serif" font-size="14.00">data &#45;1.000</text>
<polyline fill="none" stroke="black" points="1350.29,-28.5 1350.29,-64.5 "/>
<text text-anchor="middle" x="1387.79" y="-42.8" font-family="Times,serif" font-size="14.00">grad 0.000</text>
</g>
<!-- 139846687937360&#45;&gt;139846312495312* -->
<g id="edge11" class="edge">
<title>139846687937360&#45;&gt;139846312495312*</title>
<path fill="none" stroke="black" d="M1425.54,-61.11C1438.69,-63.35 1451.61,-65.55 1462.82,-67.46"/>
<polygon fill="black" stroke="black" points="1462.55,-70.96 1473,-69.19 1463.73,-64.06 1462.55,-70.96"/>
</g>
<!-- 139846687948112 -->
<g id="node17" class="node">
<title>139846687948112</title>
<polygon fill="none" stroke="black" points="313,-139.5 313,-175.5 487,-175.5 487,-139.5 313,-139.5"/>
<text text-anchor="middle" x="323" y="-153.8" font-family="Times,serif" font-size="14.00"> </text>
<polyline fill="none" stroke="black" points="333,-139.5 333,-175.5 "/>
<text text-anchor="middle" x="370" y="-153.8" font-family="Times,serif" font-size="14.00">data 0.251</text>
<polyline fill="none" stroke="black" points="407,-139.5 407,-175.5 "/>
<text text-anchor="middle" x="447" y="-153.8" font-family="Times,serif" font-size="14.00">grad &#45;0.015</text>
</g>
<!-- 139846687948112&#45;&gt;139846312508176+ -->
<g id="edge8" class="edge">
<title>139846687948112&#45;&gt;139846312508176+</title>
<path fill="none" stroke="black" d="M487.09,-141.21C496.48,-139.44 505.6,-137.71 513.83,-136.15"/>
<polygon fill="black" stroke="black" points="514.56,-139.58 523.73,-134.28 513.25,-132.7 514.56,-139.58"/>
</g>
<!-- 139846687948112*&#45;&gt;139846687948112 -->
<g id="edge6" class="edge">
<title>139846687948112*&#45;&gt;139846687948112</title>
<path fill="none" stroke="black" d="M277.12,-157.5C284.68,-157.5 293.4,-157.5 302.64,-157.5"/>
<polygon fill="black" stroke="black" points="302.83,-161 312.83,-157.5 302.83,-154 302.83,-161"/>
</g>
<!-- 139846685414736 -->
<g id="node19" class="node">
<title>139846685414736</title>
<polygon fill="none" stroke="black" points="0,-139.5 0,-175.5 187,-175.5 187,-139.5 0,-139.5"/>
<text text-anchor="middle" x="16.5" y="-153.8" font-family="Times,serif" font-size="14.00">w1</text>
<polyline fill="none" stroke="black" points="33,-139.5 33,-175.5 "/>
<text text-anchor="middle" x="70" y="-153.8" font-family="Times,serif" font-size="14.00">data 0.125</text>
<polyline fill="none" stroke="black" points="107,-139.5 107,-175.5 "/>
<text text-anchor="middle" x="147" y="-153.8" font-family="Times,serif" font-size="14.00">grad &#45;0.030</text>
</g>
<!-- 139846685414736&#45;&gt;139846687948112* -->
<g id="edge17" class="edge">
<title>139846685414736&#45;&gt;139846687948112*</title>
<path fill="none" stroke="black" d="M187.05,-157.5C196.06,-157.5 204.79,-157.5 212.7,-157.5"/>
<polygon fill="black" stroke="black" points="212.95,-161 222.95,-157.5 212.95,-154 212.95,-161"/>
</g>
<!-- 139846312696720 -->
<g id="node20" class="node">
<title>139846312696720</title>
<polygon fill="none" stroke="black" points="1241.29,-83.5 1241.29,-119.5 1436.29,-119.5 1436.29,-83.5 1241.29,-83.5"/>
<text text-anchor="middle" x="1261.79" y="-97.8" font-family="Times,serif" font-size="14.00">pred</text>
<polyline fill="none" stroke="black" points="1282.29,-83.5 1282.29,-119.5 "/>
<text text-anchor="middle" x="1319.29" y="-97.8" font-family="Times,serif" font-size="14.00">data 0.985</text>
<polyline fill="none" stroke="black" points="1356.29,-83.5 1356.29,-119.5 "/>
<text text-anchor="middle" x="1396.29" y="-97.8" font-family="Times,serif" font-size="14.00">grad &#45;1.000</text>
</g>
<!-- 139846312696720&#45;&gt;139846312495312* -->
<g id="edge18" class="edge">
<title>139846312696720&#45;&gt;139846312495312*</title>
<path fill="none" stroke="black" d="M1436.56,-84.41C1445.88,-82.76 1454.86,-81.17 1462.95,-79.74"/>
<polygon fill="black" stroke="black" points="1463.79,-83.15 1473.02,-77.96 1462.57,-76.26 1463.79,-83.15"/>
</g>
<!-- 139846312696720sigmoid&#45;&gt;139846312696720 -->
<g id="edge7" class="edge">
<title>139846312696720sigmoid&#45;&gt;139846312696720</title>
<path fill="none" stroke="black" d="M1205.48,-101.5C1213.36,-101.5 1222.01,-101.5 1230.99,-101.5"/>
<polygon fill="black" stroke="black" points="1231.24,-105 1241.24,-101.5 1231.24,-98 1231.24,-105"/>
</g>
</g>
</svg>
