<?xml version="1.0" encoding="UTF-8" standalone="no"?>
<!DOCTYPE svg PUBLIC "-//W3C//DTD SVG 1.1//EN"
 "http://www.w3.org/Graphics/SVG/1.1/DTD/svg11.dtd">
<!-- Generated by graphviz version 2.43.0 (0)
 -->
<!-- Title: %3 Pages: 1 -->
<svg width="2662pt" height="320pt"
 viewBox="0.00 0.00 2662.29 320.00" xmlns="http://www.w3.org/2000/svg" xmlns:xlink="http://www.w3.org/1999/xlink">
<g id="graph0" class="graph" transform="scale(1 1) rotate(0) translate(4 316)">
<title>%3</title>
<polygon fill="white" stroke="transparent" points="-4,4 -4,-316 2658.29,-316 2658.29,4 -4,4"/>
<!-- 139846686822672 -->
<g id="node1" class="node">
<title>139846686822672</title>
<polygon fill="none" stroke="black" points="2168.29,-219.5 2168.29,-255.5 2341.29,-255.5 2341.29,-219.5 2168.29,-219.5"/>
<text text-anchor="middle" x="2178.29" y="-233.8" font-family="Times,serif" font-size="14.00"> </text>
<polyline fill="none" stroke="black" points="2188.29,-219.5 2188.29,-255.5 "/>
<text text-anchor="middle" x="2227.29" y="-233.8" font-family="Times,serif" font-size="14.00">data &#45;0.869</text>
<polyline fill="none" stroke="black" points="2266.29,-219.5 2266.29,-255.5 "/>
<text text-anchor="middle" x="2303.79" y="-233.8" font-family="Times,serif" font-size="14.00">grad 0.000</text>
</g>
<!-- 139846686830352+ -->
<g id="node27" class="node">
<title>139846686830352+</title>
<ellipse fill="none" stroke="black" cx="2404.29" cy="-264.5" rx="27" ry="18"/>
<text text-anchor="middle" x="2404.29" y="-260.8" font-family="Times,serif" font-size="14.00">+</text>
</g>
<!-- 139846686822672&#45;&gt;139846686830352+ -->
<g id="edge31" class="edge">
<title>139846686822672&#45;&gt;139846686830352+</title>
<path fill="none" stroke="black" d="M2341.59,-253.21C2350.95,-254.92 2360.04,-256.58 2368.25,-258.08"/>
<polygon fill="black" stroke="black" points="2367.64,-261.53 2378.11,-259.89 2368.9,-254.65 2367.64,-261.53"/>
</g>
<!-- 139846686822672* -->
<g id="node2" class="node">
<title>139846686822672*</title>
<ellipse fill="none" stroke="black" cx="2105.29" cy="-237.5" rx="27" ry="18"/>
<text text-anchor="middle" x="2105.29" y="-233.8" font-family="Times,serif" font-size="14.00">*</text>
</g>
<!-- 139846686822672*&#45;&gt;139846686822672 -->
<g id="edge1" class="edge">
<title>139846686822672*&#45;&gt;139846686822672</title>
<path fill="none" stroke="black" d="M2132.32,-237.5C2139.92,-237.5 2148.69,-237.5 2157.98,-237.5"/>
<polygon fill="black" stroke="black" points="2158.23,-241 2168.23,-237.5 2158.23,-234 2158.23,-241"/>
</g>
<!-- 139846687939152 -->
<g id="node3" class="node">
<title>139846687939152</title>
<polygon fill="none" stroke="black" points="2168.79,-274.5 2168.79,-310.5 2340.79,-310.5 2340.79,-274.5 2168.79,-274.5"/>
<text text-anchor="middle" x="2180.29" y="-288.8" font-family="Times,serif" font-size="14.00">y</text>
<polyline fill="none" stroke="black" points="2191.79,-274.5 2191.79,-310.5 "/>
<text text-anchor="middle" x="2228.79" y="-288.8" font-family="Times,serif" font-size="14.00">data 1.000</text>
<polyline fill="none" stroke="black" points="2265.79,-274.5 2265.79,-310.5 "/>
<text text-anchor="middle" x="2303.29" y="-288.8" font-family="Times,serif" font-size="14.00">grad 0.000</text>
</g>
<!-- 139846687939152&#45;&gt;139846686830352+ -->
<g id="edge13" class="edge">
<title>139846687939152&#45;&gt;139846686830352+</title>
<path fill="none" stroke="black" d="M2341.17,-276.29C2350.66,-274.49 2359.9,-272.74 2368.21,-271.16"/>
<polygon fill="black" stroke="black" points="2369.04,-274.56 2378.21,-269.26 2367.73,-267.69 2369.04,-274.56"/>
</g>
<!-- 139846312499792 -->
<g id="node4" class="node">
<title>139846312499792</title>
<polygon fill="none" stroke="black" points="314.5,-55.5 314.5,-91.5 483.5,-91.5 483.5,-55.5 314.5,-55.5"/>
<text text-anchor="middle" x="324.5" y="-69.8" font-family="Times,serif" font-size="14.00"> </text>
<polyline fill="none" stroke="black" points="334.5,-55.5 334.5,-91.5 "/>
<text text-anchor="middle" x="371.5" y="-69.8" font-family="Times,serif" font-size="14.00">data 0.925</text>
<polyline fill="none" stroke="black" points="408.5,-55.5 408.5,-91.5 "/>
<text text-anchor="middle" x="446" y="-69.8" font-family="Times,serif" font-size="14.00">grad 0.000</text>
</g>
<!-- 139846686823632+ -->
<g id="node14" class="node">
<title>139846686823632+</title>
<ellipse fill="none" stroke="black" cx="553" cy="-73.5" rx="27" ry="18"/>
<text text-anchor="middle" x="553" y="-69.8" font-family="Times,serif" font-size="14.00">+</text>
</g>
<!-- 139846312499792&#45;&gt;139846686823632+ -->
<g id="edge24" class="edge">
<title>139846312499792&#45;&gt;139846686823632+</title>
<path fill="none" stroke="black" d="M483.56,-73.5C494.81,-73.5 505.83,-73.5 515.63,-73.5"/>
<polygon fill="black" stroke="black" points="515.74,-77 525.74,-73.5 515.74,-70 515.74,-77"/>
</g>
<!-- 139846312499792* -->
<g id="node5" class="node">
<title>139846312499792*</title>
<ellipse fill="none" stroke="black" cx="245" cy="-73.5" rx="27" ry="18"/>
<text text-anchor="middle" x="245" y="-69.8" font-family="Times,serif" font-size="14.00">*</text>
</g>
<!-- 139846312499792*&#45;&gt;139846312499792 -->
<g id="edge2" class="edge">
<title>139846312499792*&#45;&gt;139846312499792</title>
<path fill="none" stroke="black" d="M272.13,-73.5C281.39,-73.5 292.41,-73.5 304.03,-73.5"/>
<polygon fill="black" stroke="black" points="304.36,-77 314.36,-73.5 304.36,-70 304.36,-77"/>
</g>
<!-- 139846686820944 -->
<g id="node6" class="node">
<title>139846686820944</title>
<polygon fill="none" stroke="black" points="925,-275.5 925,-311.5 1111,-311.5 1111,-275.5 925,-275.5"/>
<text text-anchor="middle" x="941.5" y="-289.8" font-family="Times,serif" font-size="14.00">w3</text>
<polyline fill="none" stroke="black" points="958,-275.5 958,-311.5 "/>
<text text-anchor="middle" x="997" y="-289.8" font-family="Times,serif" font-size="14.00">data &#45;0.676</text>
<polyline fill="none" stroke="black" points="1036,-275.5 1036,-311.5 "/>
<text text-anchor="middle" x="1073.5" y="-289.8" font-family="Times,serif" font-size="14.00">grad 0.000</text>
</g>
<!-- 139846686830288* -->
<g id="node25" class="node">
<title>139846686830288*</title>
<ellipse fill="none" stroke="black" cx="1174" cy="-238.5" rx="27" ry="18"/>
<text text-anchor="middle" x="1174" y="-234.8" font-family="Times,serif" font-size="14.00">*</text>
</g>
<!-- 139846686820944&#45;&gt;139846686830288* -->
<g id="edge22" class="edge">
<title>139846686820944&#45;&gt;139846686830288*</title>
<path fill="none" stroke="black" d="M1084.7,-275.43C1093.6,-272.63 1102.57,-269.62 1111,-266.5 1121.49,-262.61 1132.71,-257.77 1142.68,-253.21"/>
<polygon fill="black" stroke="black" points="1144.2,-256.36 1151.79,-248.96 1141.24,-250.01 1144.2,-256.36"/>
</g>
<!-- 139846686831440 -->
<g id="node7" class="node">
<title>139846686831440</title>
<polygon fill="none" stroke="black" points="623,-110.5 623,-146.5 792,-146.5 792,-110.5 623,-110.5"/>
<text text-anchor="middle" x="633" y="-124.8" font-family="Times,serif" font-size="14.00"> </text>
<polyline fill="none" stroke="black" points="643,-110.5 643,-146.5 "/>
<text text-anchor="middle" x="680" y="-124.8" font-family="Times,serif" font-size="14.00">data 0.381</text>
<polyline fill="none" stroke="black" points="717,-110.5 717,-146.5 "/>
<text text-anchor="middle" x="754.5" y="-124.8" font-family="Times,serif" font-size="14.00">grad 0.000</text>
</g>
<!-- 139846686834512+ -->
<g id="node31" class="node">
<title>139846686834512+</title>
<ellipse fill="none" stroke="black" cx="862" cy="-128.5" rx="27" ry="18"/>
<text text-anchor="middle" x="862" y="-124.8" font-family="Times,serif" font-size="14.00">+</text>
</g>
<!-- 139846686831440&#45;&gt;139846686834512+ -->
<g id="edge30" class="edge">
<title>139846686831440&#45;&gt;139846686834512+</title>
<path fill="none" stroke="black" d="M792.33,-128.5C803.72,-128.5 814.88,-128.5 824.78,-128.5"/>
<polygon fill="black" stroke="black" points="824.98,-132 834.98,-128.5 824.98,-125 824.98,-132"/>
</g>
<!-- 139846686831440* -->
<g id="node8" class="node">
<title>139846686831440*</title>
<ellipse fill="none" stroke="black" cx="553" cy="-128.5" rx="27" ry="18"/>
<text text-anchor="middle" x="553" y="-124.8" font-family="Times,serif" font-size="14.00">*</text>
</g>
<!-- 139846686831440*&#45;&gt;139846686831440 -->
<g id="edge3" class="edge">
<title>139846686831440*&#45;&gt;139846686831440</title>
<path fill="none" stroke="black" d="M580.22,-128.5C589.66,-128.5 600.95,-128.5 612.82,-128.5"/>
<polygon fill="black" stroke="black" points="612.91,-132 622.91,-128.5 612.91,-125 612.91,-132"/>
</g>
<!-- 139846686831504 -->
<g id="node9" class="node">
<title>139846686831504</title>
<polygon fill="none" stroke="black" points="1860.79,-247.5 1860.79,-283.5 2033.79,-283.5 2033.79,-247.5 1860.79,-247.5"/>
<text text-anchor="middle" x="1870.79" y="-261.8" font-family="Times,serif" font-size="14.00"> </text>
<polyline fill="none" stroke="black" points="1880.79,-247.5 1880.79,-283.5 "/>
<text text-anchor="middle" x="1919.79" y="-261.8" font-family="Times,serif" font-size="14.00">data &#45;1.000</text>
<polyline fill="none" stroke="black" points="1958.79,-247.5 1958.79,-283.5 "/>
<text text-anchor="middle" x="1996.29" y="-261.8" font-family="Times,serif" font-size="14.00">grad 0.000</text>
</g>
<!-- 139846686831504&#45;&gt;139846686822672* -->
<g id="edge25" class="edge">
<title>139846686831504&#45;&gt;139846686822672*</title>
<path fill="none" stroke="black" d="M2034.05,-250.11C2046.37,-247.9 2058.43,-245.73 2068.98,-243.84"/>
<polygon fill="black" stroke="black" points="2069.76,-247.25 2078.98,-242.04 2068.52,-240.36 2069.76,-247.25"/>
</g>
<!-- 139846686829520 -->
<g id="node10" class="node">
<title>139846686829520</title>
<polygon fill="none" stroke="black" points="1532,-192.5 1532,-228.5 1701,-228.5 1701,-192.5 1532,-192.5"/>
<text text-anchor="middle" x="1542" y="-206.8" font-family="Times,serif" font-size="14.00"> </text>
<polyline fill="none" stroke="black" points="1552,-192.5 1552,-228.5 "/>
<text text-anchor="middle" x="1589" y="-206.8" font-family="Times,serif" font-size="14.00">data 1.890</text>
<polyline fill="none" stroke="black" points="1626,-192.5 1626,-228.5 "/>
<text text-anchor="middle" x="1663.5" y="-206.8" font-family="Times,serif" font-size="14.00">grad 0.000</text>
</g>
<!-- 139846687184848sigmoid -->
<g id="node20" class="node">
<title>139846687184848sigmoid</title>
<ellipse fill="none" stroke="black" cx="1776.65" cy="-210.5" rx="39.79" ry="18"/>
<text text-anchor="middle" x="1776.65" y="-206.8" font-family="Times,serif" font-size="14.00">sigmoid</text>
</g>
<!-- 139846686829520&#45;&gt;139846687184848sigmoid -->
<g id="edge14" class="edge">
<title>139846686829520&#45;&gt;139846687184848sigmoid</title>
<path fill="none" stroke="black" d="M1701.2,-210.5C1709.96,-210.5 1718.63,-210.5 1726.8,-210.5"/>
<polygon fill="black" stroke="black" points="1726.85,-214 1736.85,-210.5 1726.85,-207 1726.85,-214"/>
</g>
<!-- 139846686829520+ -->
<g id="node11" class="node">
<title>139846686829520+</title>
<ellipse fill="none" stroke="black" cx="1469" cy="-210.5" rx="27" ry="18"/>
<text text-anchor="middle" x="1469" y="-206.8" font-family="Times,serif" font-size="14.00">+</text>
</g>
<!-- 139846686829520+&#45;&gt;139846686829520 -->
<g id="edge4" class="edge">
<title>139846686829520+&#45;&gt;139846686829520</title>
<path fill="none" stroke="black" d="M1496.01,-210.5C1503.58,-210.5 1512.31,-210.5 1521.54,-210.5"/>
<polygon fill="black" stroke="black" points="1521.72,-214 1531.72,-210.5 1521.72,-207 1521.72,-214"/>
</g>
<!-- 139846311269328 -->
<g id="node12" class="node">
<title>139846311269328</title>
<polygon fill="none" stroke="black" points="616,-220.5 616,-256.5 799,-256.5 799,-220.5 616,-220.5"/>
<text text-anchor="middle" x="631" y="-234.8" font-family="Times,serif" font-size="14.00">x2</text>
<polyline fill="none" stroke="black" points="646,-220.5 646,-256.5 "/>
<text text-anchor="middle" x="685" y="-234.8" font-family="Times,serif" font-size="14.00">data &#45;1.000</text>
<polyline fill="none" stroke="black" points="724,-220.5 724,-256.5 "/>
<text text-anchor="middle" x="761.5" y="-234.8" font-family="Times,serif" font-size="14.00">grad 0.000</text>
</g>
<!-- 139846686834064* -->
<g id="node18" class="node">
<title>139846686834064*</title>
<ellipse fill="none" stroke="black" cx="862" cy="-183.5" rx="27" ry="18"/>
<text text-anchor="middle" x="862" y="-179.8" font-family="Times,serif" font-size="14.00">*</text>
</g>
<!-- 139846311269328&#45;&gt;139846686834064* -->
<g id="edge27" class="edge">
<title>139846311269328&#45;&gt;139846686834064*</title>
<path fill="none" stroke="black" d="M773.12,-220.38C781.88,-217.59 790.7,-214.59 799,-211.5 809.48,-207.59 820.7,-202.74 830.66,-198.18"/>
<polygon fill="black" stroke="black" points="832.19,-201.33 839.78,-193.94 829.23,-194.99 832.19,-201.33"/>
</g>
<!-- 139846686823632 -->
<g id="node13" class="node">
<title>139846686823632</title>
<polygon fill="none" stroke="black" points="623,-55.5 623,-91.5 792,-91.5 792,-55.5 623,-55.5"/>
<text text-anchor="middle" x="633" y="-69.8" font-family="Times,serif" font-size="14.00"> </text>
<polyline fill="none" stroke="black" points="643,-55.5 643,-91.5 "/>
<text text-anchor="middle" x="680" y="-69.8" font-family="Times,serif" font-size="14.00">data 0.925</text>
<polyline fill="none" stroke="black" points="717,-55.5 717,-91.5 "/>
<text text-anchor="middle" x="754.5" y="-69.8" font-family="Times,serif" font-size="14.00">grad 0.000</text>
</g>
<!-- 139846686823632&#45;&gt;139846686834512+ -->
<g id="edge23" class="edge">
<title>139846686823632&#45;&gt;139846686834512+</title>
<path fill="none" stroke="black" d="M770.15,-91.57C779.86,-94.7 789.75,-98.07 799,-101.5 809.24,-105.3 820.22,-109.9 830.05,-114.22"/>
<polygon fill="black" stroke="black" points="828.87,-117.53 839.43,-118.41 831.73,-111.14 828.87,-117.53"/>
</g>
<!-- 139846686823632+&#45;&gt;139846686823632 -->
<g id="edge5" class="edge">
<title>139846686823632+&#45;&gt;139846686823632</title>
<path fill="none" stroke="black" d="M580.22,-73.5C589.66,-73.5 600.95,-73.5 612.82,-73.5"/>
<polygon fill="black" stroke="black" points="612.91,-77 622.91,-73.5 612.91,-70 612.91,-77"/>
</g>
<!-- 139846310450512 -->
<g id="node15" class="node">
<title>139846310450512</title>
<polygon fill="none" stroke="black" points="0,-83.5 0,-119.5 182,-119.5 182,-83.5 0,-83.5"/>
<text text-anchor="middle" x="16.5" y="-97.8" font-family="Times,serif" font-size="14.00">w0</text>
<polyline fill="none" stroke="black" points="33,-83.5 33,-119.5 "/>
<text text-anchor="middle" x="70" y="-97.8" font-family="Times,serif" font-size="14.00">data 0.185</text>
<polyline fill="none" stroke="black" points="107,-83.5 107,-119.5 "/>
<text text-anchor="middle" x="144.5" y="-97.8" font-family="Times,serif" font-size="14.00">grad 0.000</text>
</g>
<!-- 139846310450512&#45;&gt;139846312499792* -->
<g id="edge16" class="edge">
<title>139846310450512&#45;&gt;139846312499792*</title>
<path fill="none" stroke="black" d="M182.18,-84.89C191.61,-83.15 200.75,-81.47 208.98,-79.95"/>
<polygon fill="black" stroke="black" points="209.66,-83.39 218.86,-78.13 208.39,-76.5 209.66,-83.39"/>
</g>
<!-- 139846312498512 -->
<g id="node16" class="node">
<title>139846312498512</title>
<polygon fill="none" stroke="black" points="616.5,-165.5 616.5,-201.5 798.5,-201.5 798.5,-165.5 616.5,-165.5"/>
<text text-anchor="middle" x="633" y="-179.8" font-family="Times,serif" font-size="14.00">w2</text>
<polyline fill="none" stroke="black" points="649.5,-165.5 649.5,-201.5 "/>
<text text-anchor="middle" x="686.5" y="-179.8" font-family="Times,serif" font-size="14.00">data 0.768</text>
<polyline fill="none" stroke="black" points="723.5,-165.5 723.5,-201.5 "/>
<text text-anchor="middle" x="761" y="-179.8" font-family="Times,serif" font-size="14.00">grad 0.000</text>
</g>
<!-- 139846312498512&#45;&gt;139846686834064* -->
<g id="edge12" class="edge">
<title>139846312498512&#45;&gt;139846686834064*</title>
<path fill="none" stroke="black" d="M798.53,-183.5C807.77,-183.5 816.73,-183.5 824.84,-183.5"/>
<polygon fill="black" stroke="black" points="824.97,-187 834.97,-183.5 824.97,-180 824.97,-187"/>
</g>
<!-- 139846686834064 -->
<g id="node17" class="node">
<title>139846686834064</title>
<polygon fill="none" stroke="black" points="931.5,-165.5 931.5,-201.5 1104.5,-201.5 1104.5,-165.5 931.5,-165.5"/>
<text text-anchor="middle" x="941.5" y="-179.8" font-family="Times,serif" font-size="14.00"> </text>
<polyline fill="none" stroke="black" points="951.5,-165.5 951.5,-201.5 "/>
<text text-anchor="middle" x="990.5" y="-179.8" font-family="Times,serif" font-size="14.00">data &#45;0.768</text>
<polyline fill="none" stroke="black" points="1029.5,-165.5 1029.5,-201.5 "/>
<text text-anchor="middle" x="1067" y="-179.8" font-family="Times,serif" font-size="14.00">grad 0.000</text>
</g>
<!-- 139846686826320+ -->
<g id="node29" class="node">
<title>139846686826320+</title>
<ellipse fill="none" stroke="black" cx="1174" cy="-183.5" rx="27" ry="18"/>
<text text-anchor="middle" x="1174" y="-179.8" font-family="Times,serif" font-size="14.00">+</text>
</g>
<!-- 139846686834064&#45;&gt;139846686826320+ -->
<g id="edge32" class="edge">
<title>139846686834064&#45;&gt;139846686826320+</title>
<path fill="none" stroke="black" d="M1104.56,-183.5C1115.84,-183.5 1126.88,-183.5 1136.69,-183.5"/>
<polygon fill="black" stroke="black" points="1136.79,-187 1146.79,-183.5 1136.79,-180 1136.79,-187"/>
</g>
<!-- 139846686834064*&#45;&gt;139846686834064 -->
<g id="edge6" class="edge">
<title>139846686834064*&#45;&gt;139846686834064</title>
<path fill="none" stroke="black" d="M889.12,-183.5C898.35,-183.5 909.34,-183.5 920.94,-183.5"/>
<polygon fill="black" stroke="black" points="921.27,-187 931.27,-183.5 921.27,-180 921.27,-187"/>
</g>
<!-- 139846687184848 -->
<g id="node19" class="node">
<title>139846687184848</title>
<polygon fill="none" stroke="black" points="1852.29,-192.5 1852.29,-228.5 2042.29,-228.5 2042.29,-192.5 1852.29,-192.5"/>
<text text-anchor="middle" x="1872.79" y="-206.8" font-family="Times,serif" font-size="14.00">pred</text>
<polyline fill="none" stroke="black" points="1893.29,-192.5 1893.29,-228.5 "/>
<text text-anchor="middle" x="1930.29" y="-206.8" font-family="Times,serif" font-size="14.00">data 0.869</text>
<polyline fill="none" stroke="black" points="1967.29,-192.5 1967.29,-228.5 "/>
<text text-anchor="middle" x="2004.79" y="-206.8" font-family="Times,serif" font-size="14.00">grad 0.000</text>
</g>
<!-- 139846687184848&#45;&gt;139846686822672* -->
<g id="edge18" class="edge">
<title>139846687184848&#45;&gt;139846686822672*</title>
<path fill="none" stroke="black" d="M2042.64,-226.83C2051.92,-228.44 2060.87,-229.99 2068.95,-231.38"/>
<polygon fill="black" stroke="black" points="2068.56,-234.87 2079.01,-233.12 2069.76,-227.97 2068.56,-234.87"/>
</g>
<!-- 139846687184848sigmoid&#45;&gt;139846687184848 -->
<g id="edge7" class="edge">
<title>139846687184848sigmoid&#45;&gt;139846687184848</title>
<path fill="none" stroke="black" d="M1816.34,-210.5C1824.25,-210.5 1832.93,-210.5 1841.94,-210.5"/>
<polygon fill="black" stroke="black" points="1842.22,-214 1852.22,-210.5 1842.22,-207 1842.22,-214"/>
</g>
<!-- 139846686037520 -->
<g id="node21" class="node">
<title>139846686037520</title>
<polygon fill="none" stroke="black" points="1.5,-28.5 1.5,-64.5 180.5,-64.5 180.5,-28.5 1.5,-28.5"/>
<text text-anchor="middle" x="16.5" y="-42.8" font-family="Times,serif" font-size="14.00">x0</text>
<polyline fill="none" stroke="black" points="31.5,-28.5 31.5,-64.5 "/>
<text text-anchor="middle" x="68.5" y="-42.8" font-family="Times,serif" font-size="14.00">data 5.000</text>
<polyline fill="none" stroke="black" points="105.5,-28.5 105.5,-64.5 "/>
<text text-anchor="middle" x="143" y="-42.8" font-family="Times,serif" font-size="14.00">grad 0.000</text>
</g>
<!-- 139846686037520&#45;&gt;139846312499792* -->
<g id="edge29" class="edge">
<title>139846686037520&#45;&gt;139846312499792*</title>
<path fill="none" stroke="black" d="M180.86,-62.28C190.65,-64.02 200.15,-65.71 208.68,-67.23"/>
<polygon fill="black" stroke="black" points="208.1,-70.68 218.56,-68.98 209.32,-63.79 208.1,-70.68"/>
</g>
<!-- 139846311265872 -->
<g id="node22" class="node">
<title>139846311265872</title>
<polygon fill="none" stroke="black" points="309.5,-165.5 309.5,-201.5 488.5,-201.5 488.5,-165.5 309.5,-165.5"/>
<text text-anchor="middle" x="324.5" y="-179.8" font-family="Times,serif" font-size="14.00">x1</text>
<polyline fill="none" stroke="black" points="339.5,-165.5 339.5,-201.5 "/>
<text text-anchor="middle" x="376.5" y="-179.8" font-family="Times,serif" font-size="14.00">data 0.400</text>
<polyline fill="none" stroke="black" points="413.5,-165.5 413.5,-201.5 "/>
<text text-anchor="middle" x="451" y="-179.8" font-family="Times,serif" font-size="14.00">grad 0.000</text>
</g>
<!-- 139846311265872&#45;&gt;139846686831440* -->
<g id="edge19" class="edge">
<title>139846311265872&#45;&gt;139846686831440*</title>
<path fill="none" stroke="black" d="M464.26,-165.36C472.97,-162.57 481.75,-159.59 490,-156.5 500.48,-152.58 511.69,-147.73 521.66,-143.17"/>
<polygon fill="black" stroke="black" points="523.18,-146.32 530.77,-138.93 520.23,-139.98 523.18,-146.32"/>
</g>
<!-- 139846312502864 -->
<g id="node23" class="node">
<title>139846312502864</title>
<polygon fill="none" stroke="black" points="308,-110.5 308,-146.5 490,-146.5 490,-110.5 308,-110.5"/>
<text text-anchor="middle" x="324.5" y="-124.8" font-family="Times,serif" font-size="14.00">w1</text>
<polyline fill="none" stroke="black" points="341,-110.5 341,-146.5 "/>
<text text-anchor="middle" x="378" y="-124.8" font-family="Times,serif" font-size="14.00">data 0.954</text>
<polyline fill="none" stroke="black" points="415,-110.5 415,-146.5 "/>
<text text-anchor="middle" x="452.5" y="-124.8" font-family="Times,serif" font-size="14.00">grad 0.000</text>
</g>
<!-- 139846312502864&#45;&gt;139846686831440* -->
<g id="edge17" class="edge">
<title>139846312502864&#45;&gt;139846686831440*</title>
<path fill="none" stroke="black" d="M490.18,-128.5C499.14,-128.5 507.83,-128.5 515.73,-128.5"/>
<polygon fill="black" stroke="black" points="515.96,-132 525.96,-128.5 515.96,-125 515.96,-132"/>
</g>
<!-- 139846686830288 -->
<g id="node24" class="node">
<title>139846686830288</title>
<polygon fill="none" stroke="black" points="1237,-220.5 1237,-256.5 1406,-256.5 1406,-220.5 1237,-220.5"/>
<text text-anchor="middle" x="1247" y="-234.8" font-family="Times,serif" font-size="14.00"> </text>
<polyline fill="none" stroke="black" points="1257,-220.5 1257,-256.5 "/>
<text text-anchor="middle" x="1294" y="-234.8" font-family="Times,serif" font-size="14.00">data 1.352</text>
<polyline fill="none" stroke="black" points="1331,-220.5 1331,-256.5 "/>
<text text-anchor="middle" x="1368.5" y="-234.8" font-family="Times,serif" font-size="14.00">grad 0.000</text>
</g>
<!-- 139846686830288&#45;&gt;139846686829520+ -->
<g id="edge28" class="edge">
<title>139846686830288&#45;&gt;139846686829520+</title>
<path fill="none" stroke="black" d="M1406.29,-222.37C1415.62,-220.58 1424.7,-218.83 1432.9,-217.25"/>
<polygon fill="black" stroke="black" points="1433.61,-220.68 1442.77,-215.36 1432.29,-213.81 1433.61,-220.68"/>
</g>
<!-- 139846686830288*&#45;&gt;139846686830288 -->
<g id="edge8" class="edge">
<title>139846686830288*&#45;&gt;139846686830288</title>
<path fill="none" stroke="black" d="M1201.01,-238.5C1208.58,-238.5 1217.31,-238.5 1226.54,-238.5"/>
<polygon fill="black" stroke="black" points="1226.72,-242 1236.72,-238.5 1226.72,-235 1226.72,-242"/>
</g>
<!-- 139846686830352 -->
<g id="node26" class="node">
<title>139846686830352</title>
<polygon fill="none" stroke="black" points="2467.29,-246.5 2467.29,-282.5 2654.29,-282.5 2654.29,-246.5 2467.29,-246.5"/>
<text text-anchor="middle" x="2486.29" y="-260.8" font-family="Times,serif" font-size="14.00">loss</text>
<polyline fill="none" stroke="black" points="2505.29,-246.5 2505.29,-282.5 "/>
<text text-anchor="middle" x="2542.29" y="-260.8" font-family="Times,serif" font-size="14.00">data 0.131</text>
<polyline fill="none" stroke="black" points="2579.29,-246.5 2579.29,-282.5 "/>
<text text-anchor="middle" x="2616.79" y="-260.8" font-family="Times,serif" font-size="14.00">grad 0.000</text>
</g>
<!-- 139846686830352+&#45;&gt;139846686830352 -->
<g id="edge9" class="edge">
<title>139846686830352+&#45;&gt;139846686830352</title>
<path fill="none" stroke="black" d="M2431.5,-264.5C2439.03,-264.5 2447.72,-264.5 2456.96,-264.5"/>
<polygon fill="black" stroke="black" points="2457.18,-268 2467.18,-264.5 2457.18,-261 2457.18,-268"/>
</g>
<!-- 139846686826320 -->
<g id="node28" class="node">
<title>139846686826320</title>
<polygon fill="none" stroke="black" points="1237,-165.5 1237,-201.5 1406,-201.5 1406,-165.5 1237,-165.5"/>
<text text-anchor="middle" x="1247" y="-179.8" font-family="Times,serif" font-size="14.00"> </text>
<polyline fill="none" stroke="black" points="1257,-165.5 1257,-201.5 "/>
<text text-anchor="middle" x="1294" y="-179.8" font-family="Times,serif" font-size="14.00">data 0.538</text>
<polyline fill="none" stroke="black" points="1331,-165.5 1331,-201.5 "/>
<text text-anchor="middle" x="1368.5" y="-179.8" font-family="Times,serif" font-size="14.00">grad 0.000</text>
</g>
<!-- 139846686826320&#45;&gt;139846686829520+ -->
<g id="edge20" class="edge">
<title>139846686826320&#45;&gt;139846686829520+</title>
<path fill="none" stroke="black" d="M1406.29,-199.05C1415.62,-200.78 1424.7,-202.47 1432.9,-203.99"/>
<polygon fill="black" stroke="black" points="1432.3,-207.43 1442.77,-205.82 1433.57,-200.55 1432.3,-207.43"/>
</g>
<!-- 139846686826320+&#45;&gt;139846686826320 -->
<g id="edge10" class="edge">
<title>139846686826320+&#45;&gt;139846686826320</title>
<path fill="none" stroke="black" d="M1201.01,-183.5C1208.58,-183.5 1217.31,-183.5 1226.54,-183.5"/>
<polygon fill="black" stroke="black" points="1226.72,-187 1236.72,-183.5 1226.72,-180 1226.72,-187"/>
</g>
<!-- 139846686834512 -->
<g id="node30" class="node">
<title>139846686834512</title>
<polygon fill="none" stroke="black" points="933.5,-110.5 933.5,-146.5 1102.5,-146.5 1102.5,-110.5 933.5,-110.5"/>
<text text-anchor="middle" x="943.5" y="-124.8" font-family="Times,serif" font-size="14.00"> </text>
<polyline fill="none" stroke="black" points="953.5,-110.5 953.5,-146.5 "/>
<text text-anchor="middle" x="990.5" y="-124.8" font-family="Times,serif" font-size="14.00">data 1.306</text>
<polyline fill="none" stroke="black" points="1027.5,-110.5 1027.5,-146.5 "/>
<text text-anchor="middle" x="1065" y="-124.8" font-family="Times,serif" font-size="14.00">grad 0.000</text>
</g>
<!-- 139846686834512&#45;&gt;139846686826320+ -->
<g id="edge21" class="edge">
<title>139846686834512&#45;&gt;139846686826320+</title>
<path fill="none" stroke="black" d="M1081.68,-146.52C1091.55,-149.66 1101.6,-153.04 1111,-156.5 1121.24,-160.28 1132.23,-164.87 1142.06,-169.19"/>
<polygon fill="black" stroke="black" points="1140.88,-172.5 1151.44,-173.38 1143.74,-166.11 1140.88,-172.5"/>
</g>
<!-- 139846686834512+&#45;&gt;139846686834512 -->
<g id="edge11" class="edge">
<title>139846686834512+&#45;&gt;139846686834512</title>
<path fill="none" stroke="black" d="M889.12,-128.5C898.94,-128.5 910.76,-128.5 923.19,-128.5"/>
<polygon fill="black" stroke="black" points="923.26,-132 933.26,-128.5 923.26,-125 923.26,-132"/>
</g>
<!-- 139846311274384 -->
<g id="node32" class="node">
<title>139846311274384</title>
<polygon fill="none" stroke="black" points="926.5,-220.5 926.5,-256.5 1109.5,-256.5 1109.5,-220.5 926.5,-220.5"/>
<text text-anchor="middle" x="941.5" y="-234.8" font-family="Times,serif" font-size="14.00">x3</text>
<polyline fill="none" stroke="black" points="956.5,-220.5 956.5,-256.5 "/>
<text text-anchor="middle" x="995.5" y="-234.8" font-family="Times,serif" font-size="14.00">data &#45;2.000</text>
<polyline fill="none" stroke="black" points="1034.5,-220.5 1034.5,-256.5 "/>
<text text-anchor="middle" x="1072" y="-234.8" font-family="Times,serif" font-size="14.00">grad 0.000</text>
</g>
<!-- 139846311274384&#45;&gt;139846686830288* -->
<g id="edge15" class="edge">
<title>139846311274384&#45;&gt;139846686830288*</title>
<path fill="none" stroke="black" d="M1109.92,-238.5C1119.25,-238.5 1128.29,-238.5 1136.48,-238.5"/>
<polygon fill="black" stroke="black" points="1136.71,-242 1146.71,-238.5 1136.71,-235 1136.71,-242"/>
</g>
<!-- 139846686824400 -->
<g id="node33" class="node">
<title>139846686824400</title>
<polygon fill="none" stroke="black" points="313,-0.5 313,-36.5 485,-36.5 485,-0.5 313,-0.5"/>
<text text-anchor="middle" x="324.5" y="-14.8" font-family="Times,serif" font-size="14.00">b</text>
<polyline fill="none" stroke="black" points="336,-0.5 336,-36.5 "/>
<text text-anchor="middle" x="373" y="-14.8" font-family="Times,serif" font-size="14.00">data 0.000</text>
<polyline fill="none" stroke="black" points="410,-0.5 410,-36.5 "/>
<text text-anchor="middle" x="447.5" y="-14.8" font-family="Times,serif" font-size="14.00">grad 0.000</text>
</g>
<!-- 139846686824400&#45;&gt;139846686823632+ -->
<g id="edge26" class="edge">
<title>139846686824400&#45;&gt;139846686823632+</title>
<path fill="none" stroke="black" d="M464.26,-36.64C472.97,-39.43 481.75,-42.41 490,-45.5 500.48,-49.42 511.69,-54.27 521.66,-58.83"/>
<polygon fill="black" stroke="black" points="520.23,-62.02 530.77,-63.07 523.18,-55.68 520.23,-62.02"/>
</g>
</g>
</svg>
