<?xml version="1.0" encoding="UTF-8" standalone="no"?>
<!DOCTYPE svg PUBLIC "-//W3C//DTD SVG 1.1//EN"
 "http://www.w3.org/Graphics/SVG/1.1/DTD/svg11.dtd">
<!-- Generated by graphviz version 2.43.0 (0)
 -->
<!-- Title: %3 Pages: 1 -->
<svg width="2044pt" height="236pt"
 viewBox="0.00 0.00 2044.29 236.00" xmlns="http://www.w3.org/2000/svg" xmlns:xlink="http://www.w3.org/1999/xlink">
<g id="graph0" class="graph" transform="scale(1 1) rotate(0) translate(4 232)">
<title>%3</title>
<polygon fill="white" stroke="transparent" points="-4,4 -4,-232 2040.29,-232 2040.29,4 -4,4"/>
<!-- 139846687162896 -->
<g id="node1" class="node">
<title>139846687162896</title>
<polygon fill="none" stroke="black" points="312,-55.5 312,-91.5 485,-91.5 485,-55.5 312,-55.5"/>
<text text-anchor="middle" x="322" y="-69.8" font-family="Times,serif" font-size="14.00"> </text>
<polyline fill="none" stroke="black" points="332,-55.5 332,-91.5 "/>
<text text-anchor="middle" x="371" y="-69.8" font-family="Times,serif" font-size="14.00">data &#45;1.577</text>
<polyline fill="none" stroke="black" points="410,-55.5 410,-91.5 "/>
<text text-anchor="middle" x="447.5" y="-69.8" font-family="Times,serif" font-size="14.00">grad 0.000</text>
</g>
<!-- 139846686522128+ -->
<g id="node15" class="node">
<title>139846686522128+</title>
<ellipse fill="none" stroke="black" cx="548" cy="-100.5" rx="27" ry="18"/>
<text text-anchor="middle" x="548" y="-96.8" font-family="Times,serif" font-size="14.00">+</text>
</g>
<!-- 139846687162896&#45;&gt;139846686522128+ -->
<g id="edge10" class="edge">
<title>139846687162896&#45;&gt;139846686522128+</title>
<path fill="none" stroke="black" d="M485.3,-89.21C494.66,-90.92 503.75,-92.58 511.95,-94.08"/>
<polygon fill="black" stroke="black" points="511.35,-97.53 521.82,-95.89 512.61,-90.65 511.35,-97.53"/>
</g>
<!-- 139846687162896* -->
<g id="node2" class="node">
<title>139846687162896*</title>
<ellipse fill="none" stroke="black" cx="249" cy="-73.5" rx="27" ry="18"/>
<text text-anchor="middle" x="249" y="-69.8" font-family="Times,serif" font-size="14.00">*</text>
</g>
<!-- 139846687162896*&#45;&gt;139846687162896 -->
<g id="edge1" class="edge">
<title>139846687162896*&#45;&gt;139846687162896</title>
<path fill="none" stroke="black" d="M276.03,-73.5C283.62,-73.5 292.4,-73.5 301.69,-73.5"/>
<polygon fill="black" stroke="black" points="301.93,-77 311.93,-73.5 301.93,-70 301.93,-77"/>
</g>
<!-- 139846686521424 -->
<g id="node3" class="node">
<title>139846686521424</title>
<polygon fill="none" stroke="black" points="1234.29,-109.5 1234.29,-145.5 1424.29,-145.5 1424.29,-109.5 1234.29,-109.5"/>
<text text-anchor="middle" x="1254.79" y="-123.8" font-family="Times,serif" font-size="14.00">pred</text>
<polyline fill="none" stroke="black" points="1275.29,-109.5 1275.29,-145.5 "/>
<text text-anchor="middle" x="1312.29" y="-123.8" font-family="Times,serif" font-size="14.00">data 0.203</text>
<polyline fill="none" stroke="black" points="1349.29,-109.5 1349.29,-145.5 "/>
<text text-anchor="middle" x="1386.79" y="-123.8" font-family="Times,serif" font-size="14.00">grad 0.000</text>
</g>
<!-- 139846686509264* -->
<g id="node11" class="node">
<title>139846686509264*</title>
<ellipse fill="none" stroke="black" cx="1487.29" cy="-154.5" rx="27" ry="18"/>
<text text-anchor="middle" x="1487.29" y="-150.8" font-family="Times,serif" font-size="14.00">*</text>
</g>
<!-- 139846686521424&#45;&gt;139846686509264* -->
<g id="edge20" class="edge">
<title>139846686521424&#45;&gt;139846686509264*</title>
<path fill="none" stroke="black" d="M1424.64,-143.83C1433.92,-145.44 1442.87,-146.99 1450.95,-148.38"/>
<polygon fill="black" stroke="black" points="1450.56,-151.87 1461.01,-150.12 1451.76,-144.97 1450.56,-151.87"/>
</g>
<!-- 139846686521424sigmoid -->
<g id="node4" class="node">
<title>139846686521424sigmoid</title>
<ellipse fill="none" stroke="black" cx="1158.65" cy="-127.5" rx="39.79" ry="18"/>
<text text-anchor="middle" x="1158.65" y="-123.8" font-family="Times,serif" font-size="14.00">sigmoid</text>
</g>
<!-- 139846686521424sigmoid&#45;&gt;139846686521424 -->
<g id="edge2" class="edge">
<title>139846686521424sigmoid&#45;&gt;139846686521424</title>
<path fill="none" stroke="black" d="M1198.34,-127.5C1206.25,-127.5 1214.93,-127.5 1223.94,-127.5"/>
<polygon fill="black" stroke="black" points="1224.22,-131 1234.22,-127.5 1224.22,-124 1224.22,-131"/>
</g>
<!-- 139846686520464 -->
<g id="node5" class="node">
<title>139846686520464</title>
<polygon fill="none" stroke="black" points="314,-110.5 314,-146.5 483,-146.5 483,-110.5 314,-110.5"/>
<text text-anchor="middle" x="324" y="-124.8" font-family="Times,serif" font-size="14.00"> </text>
<polyline fill="none" stroke="black" points="334,-110.5 334,-146.5 "/>
<text text-anchor="middle" x="371" y="-124.8" font-family="Times,serif" font-size="14.00">data 0.208</text>
<polyline fill="none" stroke="black" points="408,-110.5 408,-146.5 "/>
<text text-anchor="middle" x="445.5" y="-124.8" font-family="Times,serif" font-size="14.00">grad 0.000</text>
</g>
<!-- 139846686520464&#45;&gt;139846686522128+ -->
<g id="edge14" class="edge">
<title>139846686520464&#45;&gt;139846686522128+</title>
<path fill="none" stroke="black" d="M483.16,-112.62C493.26,-110.7 503.1,-108.83 511.91,-107.16"/>
<polygon fill="black" stroke="black" points="512.57,-110.6 521.74,-105.29 511.27,-103.72 512.57,-110.6"/>
</g>
<!-- 139846686520464* -->
<g id="node6" class="node">
<title>139846686520464*</title>
<ellipse fill="none" stroke="black" cx="249" cy="-128.5" rx="27" ry="18"/>
<text text-anchor="middle" x="249" y="-124.8" font-family="Times,serif" font-size="14.00">*</text>
</g>
<!-- 139846686520464*&#45;&gt;139846686520464 -->
<g id="edge3" class="edge">
<title>139846686520464*&#45;&gt;139846686520464</title>
<path fill="none" stroke="black" d="M276.03,-128.5C284.16,-128.5 293.64,-128.5 303.65,-128.5"/>
<polygon fill="black" stroke="black" points="303.82,-132 313.82,-128.5 303.82,-125 303.82,-132"/>
</g>
<!-- 139846686514320 -->
<g id="node7" class="node">
<title>139846686514320</title>
<polygon fill="none" stroke="black" points="3.5,-165.5 3.5,-201.5 182.5,-201.5 182.5,-165.5 3.5,-165.5"/>
<text text-anchor="middle" x="18.5" y="-179.8" font-family="Times,serif" font-size="14.00">x2</text>
<polyline fill="none" stroke="black" points="33.5,-165.5 33.5,-201.5 "/>
<text text-anchor="middle" x="70.5" y="-179.8" font-family="Times,serif" font-size="14.00">data 3.000</text>
<polyline fill="none" stroke="black" points="107.5,-165.5 107.5,-201.5 "/>
<text text-anchor="middle" x="145" y="-179.8" font-family="Times,serif" font-size="14.00">grad 0.000</text>
</g>
<!-- 139846686514320&#45;&gt;139846686520464* -->
<g id="edge17" class="edge">
<title>139846686514320&#45;&gt;139846686520464*</title>
<path fill="none" stroke="black" d="M159.7,-165.43C168.6,-162.63 177.57,-159.62 186,-156.5 196.49,-152.61 207.71,-147.77 217.68,-143.21"/>
<polygon fill="black" stroke="black" points="219.2,-146.36 226.79,-138.96 216.24,-140.01 219.2,-146.36"/>
</g>
<!-- 139846686520528 -->
<g id="node8" class="node">
<title>139846686520528</title>
<polygon fill="none" stroke="black" points="1242.79,-164.5 1242.79,-200.5 1415.79,-200.5 1415.79,-164.5 1242.79,-164.5"/>
<text text-anchor="middle" x="1252.79" y="-178.8" font-family="Times,serif" font-size="14.00"> </text>
<polyline fill="none" stroke="black" points="1262.79,-164.5 1262.79,-200.5 "/>
<text text-anchor="middle" x="1301.79" y="-178.8" font-family="Times,serif" font-size="14.00">data &#45;1.000</text>
<polyline fill="none" stroke="black" points="1340.79,-164.5 1340.79,-200.5 "/>
<text text-anchor="middle" x="1378.29" y="-178.8" font-family="Times,serif" font-size="14.00">grad 0.000</text>
</g>
<!-- 139846686520528&#45;&gt;139846686509264* -->
<g id="edge19" class="edge">
<title>139846686520528&#45;&gt;139846686509264*</title>
<path fill="none" stroke="black" d="M1416.05,-167.11C1428.37,-164.9 1440.43,-162.73 1450.98,-160.84"/>
<polygon fill="black" stroke="black" points="1451.76,-164.25 1460.98,-159.04 1450.52,-157.36 1451.76,-164.25"/>
</g>
<!-- 139846686515408 -->
<g id="node9" class="node">
<title>139846686515408</title>
<polygon fill="none" stroke="black" points="1550.79,-191.5 1550.79,-227.5 1722.79,-227.5 1722.79,-191.5 1550.79,-191.5"/>
<text text-anchor="middle" x="1562.29" y="-205.8" font-family="Times,serif" font-size="14.00">y</text>
<polyline fill="none" stroke="black" points="1573.79,-191.5 1573.79,-227.5 "/>
<text text-anchor="middle" x="1610.79" y="-205.8" font-family="Times,serif" font-size="14.00">data 1.000</text>
<polyline fill="none" stroke="black" points="1647.79,-191.5 1647.79,-227.5 "/>
<text text-anchor="middle" x="1685.29" y="-205.8" font-family="Times,serif" font-size="14.00">grad 0.000</text>
</g>
<!-- 139846686520592+ -->
<g id="node13" class="node">
<title>139846686520592+</title>
<ellipse fill="none" stroke="black" cx="1786.29" cy="-181.5" rx="27" ry="18"/>
<text text-anchor="middle" x="1786.29" y="-177.8" font-family="Times,serif" font-size="14.00">+</text>
</g>
<!-- 139846686515408&#45;&gt;139846686520592+ -->
<g id="edge18" class="edge">
<title>139846686515408&#45;&gt;139846686520592+</title>
<path fill="none" stroke="black" d="M1723.17,-193.29C1732.66,-191.49 1741.9,-189.74 1750.21,-188.16"/>
<polygon fill="black" stroke="black" points="1751.04,-191.56 1760.21,-186.26 1749.73,-184.69 1751.04,-191.56"/>
</g>
<!-- 139846686509264 -->
<g id="node10" class="node">
<title>139846686509264</title>
<polygon fill="none" stroke="black" points="1550.29,-136.5 1550.29,-172.5 1723.29,-172.5 1723.29,-136.5 1550.29,-136.5"/>
<text text-anchor="middle" x="1560.29" y="-150.8" font-family="Times,serif" font-size="14.00"> </text>
<polyline fill="none" stroke="black" points="1570.29,-136.5 1570.29,-172.5 "/>
<text text-anchor="middle" x="1609.29" y="-150.8" font-family="Times,serif" font-size="14.00">data &#45;0.203</text>
<polyline fill="none" stroke="black" points="1648.29,-136.5 1648.29,-172.5 "/>
<text text-anchor="middle" x="1685.79" y="-150.8" font-family="Times,serif" font-size="14.00">grad 0.000</text>
</g>
<!-- 139846686509264&#45;&gt;139846686520592+ -->
<g id="edge16" class="edge">
<title>139846686509264&#45;&gt;139846686520592+</title>
<path fill="none" stroke="black" d="M1723.59,-170.21C1732.95,-171.92 1742.04,-173.58 1750.25,-175.08"/>
<polygon fill="black" stroke="black" points="1749.64,-178.53 1760.11,-176.89 1750.9,-171.65 1749.64,-178.53"/>
</g>
<!-- 139846686509264*&#45;&gt;139846686509264 -->
<g id="edge4" class="edge">
<title>139846686509264*&#45;&gt;139846686509264</title>
<path fill="none" stroke="black" d="M1514.32,-154.5C1521.92,-154.5 1530.69,-154.5 1539.98,-154.5"/>
<polygon fill="black" stroke="black" points="1540.23,-158 1550.23,-154.5 1540.23,-151 1540.23,-158"/>
</g>
<!-- 139846686520592 -->
<g id="node12" class="node">
<title>139846686520592</title>
<polygon fill="none" stroke="black" points="1849.29,-163.5 1849.29,-199.5 2036.29,-199.5 2036.29,-163.5 1849.29,-163.5"/>
<text text-anchor="middle" x="1868.29" y="-177.8" font-family="Times,serif" font-size="14.00">loss</text>
<polyline fill="none" stroke="black" points="1887.29,-163.5 1887.29,-199.5 "/>
<text text-anchor="middle" x="1924.29" y="-177.8" font-family="Times,serif" font-size="14.00">data 0.797</text>
<polyline fill="none" stroke="black" points="1961.29,-163.5 1961.29,-199.5 "/>
<text text-anchor="middle" x="1998.79" y="-177.8" font-family="Times,serif" font-size="14.00">grad 0.000</text>
</g>
<!-- 139846686520592+&#45;&gt;139846686520592 -->
<g id="edge5" class="edge">
<title>139846686520592+&#45;&gt;139846686520592</title>
<path fill="none" stroke="black" d="M1813.5,-181.5C1821.03,-181.5 1829.72,-181.5 1838.96,-181.5"/>
<polygon fill="black" stroke="black" points="1839.18,-185 1849.18,-181.5 1839.18,-178 1839.18,-185"/>
</g>
<!-- 139846686522128 -->
<g id="node14" class="node">
<title>139846686522128</title>
<polygon fill="none" stroke="black" points="611,-82.5 611,-118.5 784,-118.5 784,-82.5 611,-82.5"/>
<text text-anchor="middle" x="621" y="-96.8" font-family="Times,serif" font-size="14.00"> </text>
<polyline fill="none" stroke="black" points="631,-82.5 631,-118.5 "/>
<text text-anchor="middle" x="670" y="-96.8" font-family="Times,serif" font-size="14.00">data &#45;1.369</text>
<polyline fill="none" stroke="black" points="709,-82.5 709,-118.5 "/>
<text text-anchor="middle" x="746.5" y="-96.8" font-family="Times,serif" font-size="14.00">grad 0.000</text>
</g>
<!-- 139846686521680+ -->
<g id="node18" class="node">
<title>139846686521680+</title>
<ellipse fill="none" stroke="black" cx="847" cy="-127.5" rx="27" ry="18"/>
<text text-anchor="middle" x="847" y="-123.8" font-family="Times,serif" font-size="14.00">+</text>
</g>
<!-- 139846686522128&#45;&gt;139846686521680+ -->
<g id="edge9" class="edge">
<title>139846686522128&#45;&gt;139846686521680+</title>
<path fill="none" stroke="black" d="M784.3,-116.21C793.66,-117.92 802.75,-119.58 810.95,-121.08"/>
<polygon fill="black" stroke="black" points="810.35,-124.53 820.82,-122.89 811.61,-117.65 810.35,-124.53"/>
</g>
<!-- 139846686522128+&#45;&gt;139846686522128 -->
<g id="edge6" class="edge">
<title>139846686522128+&#45;&gt;139846686522128</title>
<path fill="none" stroke="black" d="M575.03,-100.5C582.62,-100.5 591.4,-100.5 600.69,-100.5"/>
<polygon fill="black" stroke="black" points="600.93,-104 610.93,-100.5 600.93,-97 600.93,-104"/>
</g>
<!-- 139846686510352 -->
<g id="node16" class="node">
<title>139846686510352</title>
<polygon fill="none" stroke="black" points="611.5,-137.5 611.5,-173.5 783.5,-173.5 783.5,-137.5 611.5,-137.5"/>
<text text-anchor="middle" x="623" y="-151.8" font-family="Times,serif" font-size="14.00">b</text>
<polyline fill="none" stroke="black" points="634.5,-137.5 634.5,-173.5 "/>
<text text-anchor="middle" x="671.5" y="-151.8" font-family="Times,serif" font-size="14.00">data 0.000</text>
<polyline fill="none" stroke="black" points="708.5,-137.5 708.5,-173.5 "/>
<text text-anchor="middle" x="746" y="-151.8" font-family="Times,serif" font-size="14.00">grad 0.000</text>
</g>
<!-- 139846686510352&#45;&gt;139846686521680+ -->
<g id="edge13" class="edge">
<title>139846686510352&#45;&gt;139846686521680+</title>
<path fill="none" stroke="black" d="M783.87,-139.29C793.37,-137.49 802.6,-135.74 810.92,-134.16"/>
<polygon fill="black" stroke="black" points="811.75,-137.56 820.92,-132.26 810.44,-130.69 811.75,-137.56"/>
</g>
<!-- 139846686521680 -->
<g id="node17" class="node">
<title>139846686521680</title>
<polygon fill="none" stroke="black" points="910,-109.5 910,-145.5 1083,-145.5 1083,-109.5 910,-109.5"/>
<text text-anchor="middle" x="920" y="-123.8" font-family="Times,serif" font-size="14.00"> </text>
<polyline fill="none" stroke="black" points="930,-109.5 930,-145.5 "/>
<text text-anchor="middle" x="969" y="-123.8" font-family="Times,serif" font-size="14.00">data &#45;1.369</text>
<polyline fill="none" stroke="black" points="1008,-109.5 1008,-145.5 "/>
<text text-anchor="middle" x="1045.5" y="-123.8" font-family="Times,serif" font-size="14.00">grad 0.000</text>
</g>
<!-- 139846686521680&#45;&gt;139846686521424sigmoid -->
<g id="edge8" class="edge">
<title>139846686521680&#45;&gt;139846686521424sigmoid</title>
<path fill="none" stroke="black" d="M1083.2,-127.5C1091.98,-127.5 1100.68,-127.5 1108.86,-127.5"/>
<polygon fill="black" stroke="black" points="1108.91,-131 1118.91,-127.5 1108.9,-124 1108.91,-131"/>
</g>
<!-- 139846686521680+&#45;&gt;139846686521680 -->
<g id="edge7" class="edge">
<title>139846686521680+&#45;&gt;139846686521680</title>
<path fill="none" stroke="black" d="M874.03,-127.5C881.62,-127.5 890.4,-127.5 899.69,-127.5"/>
<polygon fill="black" stroke="black" points="899.93,-131 909.93,-127.5 899.93,-124 899.93,-131"/>
</g>
<!-- 139850102560080 -->
<g id="node19" class="node">
<title>139850102560080</title>
<polygon fill="none" stroke="black" points="0,-55.5 0,-91.5 186,-91.5 186,-55.5 0,-55.5"/>
<text text-anchor="middle" x="16.5" y="-69.8" font-family="Times,serif" font-size="14.00">w1</text>
<polyline fill="none" stroke="black" points="33,-55.5 33,-91.5 "/>
<text text-anchor="middle" x="72" y="-69.8" font-family="Times,serif" font-size="14.00">data &#45;0.789</text>
<polyline fill="none" stroke="black" points="111,-55.5 111,-91.5 "/>
<text text-anchor="middle" x="148.5" y="-69.8" font-family="Times,serif" font-size="14.00">grad 0.000</text>
</g>
<!-- 139850102560080&#45;&gt;139846687162896* -->
<g id="edge12" class="edge">
<title>139850102560080&#45;&gt;139846687162896*</title>
<path fill="none" stroke="black" d="M186.25,-73.5C195.15,-73.5 203.76,-73.5 211.59,-73.5"/>
<polygon fill="black" stroke="black" points="211.73,-77 221.73,-73.5 211.73,-70 211.73,-77"/>
</g>
<!-- 139846686511440 -->
<g id="node20" class="node">
<title>139846686511440</title>
<polygon fill="none" stroke="black" points="2,-110.5 2,-146.5 184,-146.5 184,-110.5 2,-110.5"/>
<text text-anchor="middle" x="18.5" y="-124.8" font-family="Times,serif" font-size="14.00">w2</text>
<polyline fill="none" stroke="black" points="35,-110.5 35,-146.5 "/>
<text text-anchor="middle" x="72" y="-124.8" font-family="Times,serif" font-size="14.00">data 0.069</text>
<polyline fill="none" stroke="black" points="109,-110.5 109,-146.5 "/>
<text text-anchor="middle" x="146.5" y="-124.8" font-family="Times,serif" font-size="14.00">grad 0.000</text>
</g>
<!-- 139846686511440&#45;&gt;139846686520464* -->
<g id="edge15" class="edge">
<title>139846686511440&#45;&gt;139846686520464*</title>
<path fill="none" stroke="black" d="M184.03,-128.5C193.75,-128.5 203.18,-128.5 211.69,-128.5"/>
<polygon fill="black" stroke="black" points="211.91,-132 221.91,-128.5 211.91,-125 211.91,-132"/>
</g>
<!-- 139846686518736 -->
<g id="node21" class="node">
<title>139846686518736</title>
<polygon fill="none" stroke="black" points="3.5,-0.5 3.5,-36.5 182.5,-36.5 182.5,-0.5 3.5,-0.5"/>
<text text-anchor="middle" x="18.5" y="-14.8" font-family="Times,serif" font-size="14.00">x1</text>
<polyline fill="none" stroke="black" points="33.5,-0.5 33.5,-36.5 "/>
<text text-anchor="middle" x="70.5" y="-14.8" font-family="Times,serif" font-size="14.00">data 2.000</text>
<polyline fill="none" stroke="black" points="107.5,-0.5 107.5,-36.5 "/>
<text text-anchor="middle" x="145" y="-14.8" font-family="Times,serif" font-size="14.00">grad 0.000</text>
</g>
<!-- 139846686518736&#45;&gt;139846687162896* -->
<g id="edge11" class="edge">
<title>139846686518736&#45;&gt;139846687162896*</title>
<path fill="none" stroke="black" d="M156.68,-36.52C166.55,-39.66 176.6,-43.04 186,-46.5 196.24,-50.28 207.23,-54.87 217.06,-59.19"/>
<polygon fill="black" stroke="black" points="215.88,-62.5 226.44,-63.38 218.74,-56.11 215.88,-62.5"/>
</g>
</g>
</svg>
