<?xml version="1.0" encoding="UTF-8" standalone="no"?>
<!DOCTYPE svg PUBLIC "-//W3C//DTD SVG 1.1//EN"
 "http://www.w3.org/Graphics/SVG/1.1/DTD/svg11.dtd">
<!-- Generated by graphviz version 2.43.0 (0)
 -->
<!-- Title: %3 Pages: 1 -->
<svg width="790pt" height="128pt"
 viewBox="0.00 0.00 790.00 128.00" xmlns="http://www.w3.org/2000/svg" xmlns:xlink="http://www.w3.org/1999/xlink">
<g id="graph0" class="graph" transform="scale(1 1) rotate(0) translate(4 124)">
<title>%3</title>
<polygon fill="white" stroke="transparent" points="-4,4 -4,-124 786,-124 786,4 -4,4"/>
<!-- 139850085322768 -->
<g id="node1" class="node">
<title>139850085322768</title>
<polygon fill="none" stroke="black" points="0,-83.5 0,-119.5 172,-119.5 172,-83.5 0,-83.5"/>
<text text-anchor="middle" x="11.5" y="-97.8" font-family="Times,serif" font-size="14.00">a</text>
<polyline fill="none" stroke="black" points="23,-83.5 23,-119.5 "/>
<text text-anchor="middle" x="60" y="-97.8" font-family="Times,serif" font-size="14.00">data 5.000</text>
<polyline fill="none" stroke="black" points="97,-83.5 97,-119.5 "/>
<text text-anchor="middle" x="134.5" y="-97.8" font-family="Times,serif" font-size="14.00">grad 0.000</text>
</g>
<!-- 139850099042512+ -->
<g id="node4" class="node">
<title>139850099042512+</title>
<ellipse fill="none" stroke="black" cx="235" cy="-73.5" rx="27" ry="18"/>
<text text-anchor="middle" x="235" y="-69.8" font-family="Times,serif" font-size="14.00">+</text>
</g>
<!-- 139850085322768&#45;&gt;139850099042512+ -->
<g id="edge5" class="edge">
<title>139850085322768&#45;&gt;139850099042512+</title>
<path fill="none" stroke="black" d="M172.08,-85.29C181.46,-83.51 190.58,-81.77 198.81,-80.2"/>
<polygon fill="black" stroke="black" points="199.54,-83.63 208.7,-78.32 198.23,-76.75 199.54,-83.63"/>
</g>
<!-- 139850084629072 -->
<g id="node2" class="node">
<title>139850084629072</title>
<polygon fill="none" stroke="black" points="298,-0.5 298,-36.5 476,-36.5 476,-0.5 298,-0.5"/>
<text text-anchor="middle" x="309.5" y="-14.8" font-family="Times,serif" font-size="14.00">d</text>
<polyline fill="none" stroke="black" points="321,-0.5 321,-36.5 "/>
<text text-anchor="middle" x="361" y="-14.8" font-family="Times,serif" font-size="14.00">data 10.000</text>
<polyline fill="none" stroke="black" points="401,-0.5 401,-36.5 "/>
<text text-anchor="middle" x="438.5" y="-14.8" font-family="Times,serif" font-size="14.00">grad 0.000</text>
</g>
<!-- 139850085324240* -->
<g id="node7" class="node">
<title>139850085324240*</title>
<ellipse fill="none" stroke="black" cx="539" cy="-45.5" rx="27" ry="18"/>
<text text-anchor="middle" x="539" y="-41.8" font-family="Times,serif" font-size="14.00">*</text>
</g>
<!-- 139850084629072&#45;&gt;139850085324240* -->
<g id="edge6" class="edge">
<title>139850084629072&#45;&gt;139850085324240*</title>
<path fill="none" stroke="black" d="M476.12,-34.36C485.54,-36.06 494.67,-37.7 502.9,-39.18"/>
<polygon fill="black" stroke="black" points="502.33,-42.64 512.79,-40.96 503.57,-35.75 502.33,-42.64"/>
</g>
<!-- 139850099042512 -->
<g id="node3" class="node">
<title>139850099042512</title>
<polygon fill="none" stroke="black" points="301,-55.5 301,-91.5 473,-91.5 473,-55.5 301,-55.5"/>
<text text-anchor="middle" x="312.5" y="-69.8" font-family="Times,serif" font-size="14.00">c</text>
<polyline fill="none" stroke="black" points="324,-55.5 324,-91.5 "/>
<text text-anchor="middle" x="361" y="-69.8" font-family="Times,serif" font-size="14.00">data 8.000</text>
<polyline fill="none" stroke="black" points="398,-55.5 398,-91.5 "/>
<text text-anchor="middle" x="435.5" y="-69.8" font-family="Times,serif" font-size="14.00">grad 0.000</text>
</g>
<!-- 139850099042512&#45;&gt;139850085324240* -->
<g id="edge3" class="edge">
<title>139850099042512&#45;&gt;139850085324240*</title>
<path fill="none" stroke="black" d="M473.08,-57.62C483.44,-55.68 493.54,-53.8 502.57,-52.11"/>
<polygon fill="black" stroke="black" points="503.44,-55.51 512.62,-50.24 502.15,-48.63 503.44,-55.51"/>
</g>
<!-- 139850099042512+&#45;&gt;139850099042512 -->
<g id="edge1" class="edge">
<title>139850099042512+&#45;&gt;139850099042512</title>
<path fill="none" stroke="black" d="M262.13,-73.5C270.52,-73.5 280.37,-73.5 290.77,-73.5"/>
<polygon fill="black" stroke="black" points="290.89,-77 300.89,-73.5 290.89,-70 290.89,-77"/>
</g>
<!-- 139850085517008 -->
<g id="node5" class="node">
<title>139850085517008</title>
<polygon fill="none" stroke="black" points="0,-28.5 0,-64.5 172,-64.5 172,-28.5 0,-28.5"/>
<text text-anchor="middle" x="11.5" y="-42.8" font-family="Times,serif" font-size="14.00">b</text>
<polyline fill="none" stroke="black" points="23,-28.5 23,-64.5 "/>
<text text-anchor="middle" x="60" y="-42.8" font-family="Times,serif" font-size="14.00">data 3.000</text>
<polyline fill="none" stroke="black" points="97,-28.5 97,-64.5 "/>
<text text-anchor="middle" x="134.5" y="-42.8" font-family="Times,serif" font-size="14.00">grad 0.000</text>
</g>
<!-- 139850085517008&#45;&gt;139850099042512+ -->
<g id="edge4" class="edge">
<title>139850085517008&#45;&gt;139850099042512+</title>
<path fill="none" stroke="black" d="M172.08,-62.13C181.46,-63.85 190.58,-65.52 198.81,-67.04"/>
<polygon fill="black" stroke="black" points="198.24,-70.49 208.7,-68.85 199.5,-63.6 198.24,-70.49"/>
</g>
<!-- 139850085324240 -->
<g id="node6" class="node">
<title>139850085324240</title>
<polygon fill="none" stroke="black" points="602,-27.5 602,-63.5 782,-63.5 782,-27.5 602,-27.5"/>
<text text-anchor="middle" x="614.5" y="-41.8" font-family="Times,serif" font-size="14.00">L</text>
<polyline fill="none" stroke="black" points="627,-27.5 627,-63.5 "/>
<text text-anchor="middle" x="667" y="-41.8" font-family="Times,serif" font-size="14.00">data 80.000</text>
<polyline fill="none" stroke="black" points="707,-27.5 707,-63.5 "/>
<text text-anchor="middle" x="744.5" y="-41.8" font-family="Times,serif" font-size="14.00">grad 0.000</text>
</g>
<!-- 139850085324240*&#45;&gt;139850085324240 -->
<g id="edge2" class="edge">
<title>139850085324240*&#45;&gt;139850085324240</title>
<path fill="none" stroke="black" d="M566.3,-45.5C573.81,-45.5 582.47,-45.5 591.65,-45.5"/>
<polygon fill="black" stroke="black" points="591.79,-49 601.79,-45.5 591.79,-42 591.79,-49"/>
</g>
</g>
</svg>
